<?xml version="1.0" standalone="no"?>
<!DOCTYPE svg PUBLIC "-//W3C//DTD SVG 20010904//EN"
 "http://www.w3.org/TR/2001/REC-SVG-20010904/DTD/svg10.dtd">
<svg version="1.0" xmlns="http://www.w3.org/2000/svg"
 width="7972.000000pt" height="7972.000000pt" viewBox="0 0 7972.000000 7972.000000"
 preserveAspectRatio="xMidYMid meet">

<g transform="translate(0.000000,7972.000000) scale(0.100000,-0.100000)"
fill="#000000" stroke="none">
<path d="M4235 54674 c-211 -32 -384 -86 -570 -177 -587 -288 -986 -840 -1070
-1483 -26 -202 -26 -206 120 -997 74 -403 537 -2928 1030 -5612 493 -2684 916
-4990 941 -5125 25 -135 362 -1973 750 -4085 388 -2112 916 -4992 1175 -6400
258 -1408 524 -2853 589 -3211 75 -408 120 -676 120 -717 0 -95 27 -272 60
-403 36 -137 84 -263 160 -414 56 -110 61 -128 125 -410 37 -162 84 -367 104
-455 l37 -160 34673 -3 34673 -2 -124 137 c-68 76 -484 541 -924 1033 -441
492 -832 925 -871 961 -121 113 -329 241 -538 330 -401 170 -916 282 -1590
346 -168 16 -881 17 -10805 20 l-10626 3 -608 3313 c-335 1821 -677 3688 -762
4147 -197 1079 -1448 7890 -1739 9475 -123 671 -441 2399 -705 3840 -265 1441
-544 2962 -621 3379 -76 418 -139 784 -139 813 0 89 -20 241 -46 362 -143 641
-598 1164 -1214 1394 -96 36 -201 65 -340 95 -69 15 -1768 16 -20625 18
-17503 2 -20563 0 -20640 -12z m37004 -2524 c207 -58 379 -203 480 -406 87
-176 83 -399 -11 -547 -61 -96 -177 -173 -297 -198 -95 -20 -242 -7 -341 30
-91 34 -195 97 -267 164 -92 85 -188 249 -212 365 -17 84 -14 221 8 291 47
150 179 275 328 310 73 17 233 12 312 -9z m1536 5 c249 -63 476 -287 539 -532
23 -89 21 -238 -5 -315 -68 -203 -238 -318 -469 -318 -109 0 -195 21 -296 71
-276 136 -449 429 -414 703 23 181 147 332 318 387 73 23 243 25 327 4z
m-34591 -1462 c3 -10 923 -4765 2045 -10568 1122 -5802 2043 -10564 2047
-10581 l6 -31 -91 -18 c-51 -10 -93 -16 -95 -14 -9 11 -4098 21190 -4092
21196 6 7 121 30 158 32 9 1 19 -7 22 -16z m-464 -487 c0 -2 11 -57 24 -122
13 -66 27 -136 30 -157 l7 -37 -523 2 -523 3 -27 140 c-15 77 -27 148 -27 158
-1 16 30 17 519 17 286 0 520 -2 520 -4z m6794 -88 c10 -51 24 -123 31 -160
l13 -68 -522 0 -521 0 -28 148 c-15 81 -27 153 -27 160 0 9 110 12 518 12
l518 0 18 -92z m-6562 -1103 c15 -77 27 -148 27 -157 1 -17 -30 -18 -519 -18
-286 0 -520 2 -520 4 0 2 -11 57 -24 122 -13 66 -27 136 -30 157 l-7 37 523
-2 523 -3 27 -140z m2631 2 c15 -79 27 -149 27 -155 0 -9 -192 -12 -763 -12
l-763 0 -27 143 c-15 78 -27 148 -27 155 0 9 159 12 763 12 l763 0 27 -143z
m-2430 -1045 c15 -81 27 -153 27 -159 0 -10 -111 -13 -520 -13 -286 0 -520 2
-520 3 0 2 -13 73 -30 158 -16 85 -30 155 -30 157 0 1 235 2 523 2 l522 0 28
-148z m3373 -12 l30 -160 -1134 2 -1135 3 -28 140 c-15 77 -28 148 -28 158 -1
16 59 17 1132 17 l1133 0 30 -160z m1168 18 c15 -79 29 -151 32 -160 5 -17
-18 -18 -384 -18 l-390 0 -26 143 c-15 78 -29 150 -32 160 -5 16 18 17 384 17
l390 0 26 -142z m-4338 -1058 l30 -160 -521 0 -522 0 -27 138 c-15 75 -29 147
-31 160 l-5 22 523 0 523 0 30 -160z m8325 15 c15 -77 28 -148 28 -157 1 -17
-114 -18 -2279 -18 -1254 0 -2280 2 -2280 4 0 2 -11 57 -24 122 -13 66 -27
136 -30 157 l-7 37 2282 -2 2282 -3 28 -140z m1579 143 c0 -2 14 -72 30 -157
17 -85 30 -156 30 -158 0 -2 -264 -2 -587 -1 l-588 3 -27 135 c-14 74 -27 145
-27 158 l-1 22 585 0 c322 0 585 -1 585 -2z m7306 -35 c3 -21 17 -91 30 -157
13 -65 24 -120 24 -122 0 -2 -1486 -4 -3303 -4 l-3303 0 -27 148 c-15 81 -27
153 -27 160 0 9 667 12 3300 12 l3299 0 7 -37z m-9365 -998 c15 -77 28 -146
28 -152 1 -10 -296 -13 -1454 -13 l-1455 0 -4 23 c-3 12 -15 72 -26 132 -12
61 -24 120 -27 133 l-5 22 1458 -2 1458 -3 27 -140z m1651 5 c15 -74 27 -143
28 -152 0 -17 -33 -18 -564 -18 l-563 0 -17 84 c-9 45 -23 115 -30 155 l-14
71 566 -2 566 -3 28 -135z m1582 123 c3 -10 15 -70 26 -133 12 -63 24 -125 27
-137 l5 -23 -588 0 -589 0 -28 148 c-15 81 -27 150 -27 155 0 4 263 7 584 7
548 0 585 -1 590 -17z m2999 -5 c3 -13 15 -75 27 -138 11 -63 23 -123 26 -132
5 -17 -54 -18 -1148 -18 l-1154 0 -27 143 c-15 78 -27 148 -27 155 0 9 236 12
1149 12 l1149 0 5 -22z m-13903 -143 c0 -9 51 -270 56 -287 5 -17 -24 -18
-518 -18 l-524 0 -30 155 -31 155 524 0 c287 0 523 -2 523 -5z m9526 -1035
l30 -160 -2282 0 -2282 0 -27 143 c-14 78 -29 150 -31 160 -5 16 108 17 2278
17 l2284 0 30 -160z m1605 15 c15 -77 28 -148 28 -157 1 -17 -33 -18 -583 -18
-548 0 -585 1 -590 18 -6 20 -56 283 -56 294 0 5 264 7 587 6 l586 -3 28 -140z
m7273 128 c5 -20 56 -286 56 -296 0 -4 -1486 -6 -3302 -5 l-3302 3 -27 140
c-15 77 -28 148 -28 158 -1 16 163 17 3298 17 3134 0 3300 -1 3305 -17z
m-18204 -145 c0 -2 14 -72 30 -157 17 -85 30 -156 30 -158 0 -2 -235 -2 -522
-1 l-523 3 -27 140 c-15 77 -27 148 -28 158 0 16 31 17 520 17 286 0 520 -1
520 -2z m204 -1060 c14 -62 56 -282 56 -290 0 -4 -234 -8 -520 -8 l-520 0 -5
23 c-13 56 -55 271 -55 283 0 12 88 14 520 14 l520 0 4 -22z m11460 -15 c3
-21 17 -93 30 -160 l23 -123 -3347 0 -3346 0 -30 160 -30 160 3346 0 3347 0 7
-37z m5538 -108 c15 -77 27 -148 28 -158 0 -16 -126 -17 -2562 -15 l-2563 3
-27 140 c-15 77 -27 148 -28 158 0 16 126 17 2562 15 l2563 -3 27 -140z
m-16798 -912 c7 -24 56 -280 56 -293 0 -7 -182 -10 -519 -10 -486 0 -520 1
-525 18 -6 20 -56 283 -56 294 0 4 234 8 519 8 486 0 520 -1 525 -17z m3399
-141 c15 -81 27 -150 27 -154 0 -5 -510 -8 -1133 -8 l-1133 0 -27 143 c-15 79
-27 149 -27 155 0 9 281 12 1133 12 l1132 0 28 -148z m1173 -4 l29 -153 -384
-3 c-211 -1 -386 -1 -388 2 -2 2 -15 61 -28 132 -14 71 -27 139 -30 152 l-5
22 389 0 388 0 29 -152z m-4343 -1035 c15 -82 27 -151 27 -155 0 -8 -1040 -12
-1040 -4 0 2 -11 57 -24 122 -13 66 -26 134 -29 152 l-6 32 522 0 523 0 27
-147z m8227 -166 c0 -2 14 -71 30 -152 17 -81 30 -152 30 -157 0 -4 -997 -8
-2215 -8 -1218 0 -2215 1 -2215 3 0 1 -14 72 -30 157 -16 85 -30 156 -30 158
0 1 997 2 2215 2 1218 0 2215 -2 2215 -3z m-8036 -819 c10 -51 24 -123 31
-160 l13 -68 -523 0 -522 0 -27 143 c-15 78 -29 150 -32 160 -5 16 24 17 518
17 l524 0 18 -92z m210 -1090 c15 -79 29 -151 32 -160 5 -17 -24 -18 -518 -18
l-524 0 -18 93 c-10 50 -24 122 -31 160 l-13 67 523 0 522 0 27 -142z m200
-1035 c15 -76 29 -148 31 -160 l5 -23 -523 0 -523 0 -27 148 c-15 81 -27 153
-27 160 0 9 111 12 519 12 l518 0 27 -137z m180 -930 c6 -21 56 -284 56 -295
0 -4 -234 -8 -519 -8 -486 0 -520 1 -525 18 -6 20 -56 283 -56 294 0 4 234 8
519 8 486 0 520 -1 525 -17z m6876 12 c0 -9 51 -270 56 -287 5 -17 -36 -18
-760 -18 l-766 0 -5 23 c-10 43 -55 270 -55 278 0 5 343 9 765 9 421 0 765 -2
765 -5z m-6649 -1180 c15 -77 28 -148 28 -157 1 -17 -30 -18 -519 -18 l-520 0
-4 23 c-14 62 -56 281 -56 289 0 4 235 7 522 6 l521 -3 28 -140z m7613 8 c15
-76 30 -148 33 -160 l5 -23 -1136 0 c-625 0 -1136 1 -1136 3 0 1 -14 72 -30
157 -16 85 -30 156 -30 158 0 1 510 2 1134 2 l1133 0 27 -137z m1150 120 c5
-20 56 -286 56 -297 0 -3 -174 -5 -387 -4 l-388 3 -27 140 c-15 77 -27 148
-28 158 0 16 25 17 384 17 358 0 385 -1 390 -17z m-8562 -1168 c15 -77 27
-148 28 -157 0 -17 -31 -18 -520 -18 -286 0 -520 1 -520 3 0 1 -14 71 -30 156
-17 85 -30 156 -30 158 0 2 235 2 522 1 l523 -3 27 -140z m11512 -597 c15 -79
29 -151 32 -161 5 -16 -67 -17 -1452 -15 l-1458 3 -28 135 c-15 74 -27 145
-28 158 l0 22 1454 0 1453 0 27 -142z m1650 5 c15 -76 29 -148 31 -160 l5 -23
-565 0 -565 0 -5 23 c-13 56 -55 271 -55 283 0 12 95 14 564 14 l563 0 27
-137z m1590 100 c3 -21 17 -93 30 -160 l23 -123 -587 0 -587 0 -27 138 c-15
75 -29 147 -31 160 l-5 22 589 0 588 0 7 -37z m3018 -108 c15 -77 27 -148 27
-157 1 -17 -60 -18 -1149 -18 -632 0 -1150 1 -1150 3 0 1 -14 71 -30 156 -17
85 -30 156 -30 158 0 2 519 2 1152 1 l1153 -3 27 -140z m-17592 -317 c0 -7 13
-77 29 -155 l28 -143 -522 0 -522 0 -17 84 c-9 45 -23 115 -30 155 l-14 71
524 0 c412 0 524 -3 524 -12z m12532 -853 c15 -77 27 -148 27 -157 1 -17 -98
-18 -1938 -18 l-1938 0 -27 138 c-15 75 -29 147 -31 160 l-5 22 1942 -2 1943
-3 27 -140z m5850 5 c15 -74 27 -145 28 -157 l0 -23 -2719 0 c-2582 0 -2720 1
-2725 18 -6 20 -56 283 -56 294 0 5 1225 7 2722 6 l2722 -3 28 -135z m-18158
-317 c15 -76 29 -148 31 -160 l5 -23 -523 0 -523 0 -30 160 -30 160 521 0 522
0 27 -137z m10308 -728 c15 -77 27 -148 28 -157 0 -17 -46 -18 -839 -18 l-838
0 -27 143 c-15 78 -29 150 -32 160 -5 16 38 17 838 15 l843 -3 27 -140z m2201
-3 c15 -81 27 -153 27 -159 0 -10 -177 -13 -853 -13 l-852 0 -31 160 -30 160
855 0 856 0 28 -148z m4489 8 c14 -74 27 -145 27 -157 l1 -23 -2040 0 -2040 0
-4 23 c-14 62 -56 281 -56 289 0 4 919 7 2042 6 l2043 -3 27 -135z m1364 -20
l30 -160 -493 0 c-271 0 -493 2 -493 4 0 2 -11 57 -24 122 -13 66 -27 136 -30
157 l-7 37 494 0 493 0 30 -160z m-18180 -197 c3 -21 17 -91 30 -157 13 -65
24 -120 24 -122 0 -2 -235 -4 -522 -4 l-523 0 -28 148 c-15 81 -27 153 -27
160 0 9 111 12 520 12 l519 0 7 -37z m6968 -475 c15 -79 29 -149 31 -156 4
-10 -151 -12 -763 -10 l-767 3 -27 140 c-15 77 -27 146 -27 153 -1 9 158 12
763 12 l764 0 26 -142z m-6774 -532 c0 -2 11 -57 24 -122 13 -66 27 -136 30
-157 l7 -37 -523 2 -523 3 -27 140 c-15 77 -27 148 -27 158 -1 16 30 17 519
17 286 0 520 -2 520 -4z m7717 -518 l29 -153 -1130 -3 c-621 -1 -1131 0 -1134
3 -5 4 -61 271 -62 293 0 9 233 12 1134 12 l1134 0 29 -152z m1147 130 c3 -13
15 -72 26 -133 12 -60 24 -120 27 -132 l5 -23 -391 0 c-306 0 -391 3 -391 13
0 6 -13 76 -29 155 l-28 142 388 0 389 0 4 -22z m-8632 -803 c15 -77 27 -146
27 -152 1 -10 -109 -13 -518 -13 -486 0 -520 1 -525 18 -5 17 -56 278 -56 287
0 3 235 4 522 3 l523 -3 27 -140z"/>
</g>
</svg>
