<?xml version="1.0" encoding="utf-8"?>
<svg xmlns="http://www.w3.org/2000/svg" height="512pt" version="1.1" viewBox="0 0 512 512" width="512pt">
<path d="M 0.00 0.00 L 512.00 0.00 L 512.00 512.00 L 0.00 512.00 L 0.00 0.00 Z" fill="#fbebec" opacity="1.00" stroke="#fbebec" stroke-width="0.25"/>
<path d="M 230.41 49.99 C 231.02 45.69 234.48 41.68 238.96 41.44 C 241.42 41.62 243.72 42.62 246.03 43.40 C 302.52 63.56 359.35 82.76 416.21 101.82 C 424.33 104.95 432.81 107.06 440.91 110.21 C 441.44 110.32 442.52 110.55 443.05 110.66 C 447.99 112.66 453.05 114.37 458.19 115.80 C 464.72 118.43 471.45 120.54 478.16 122.67 C 482.12 124.38 486.84 125.00 489.99 128.17 C 493.71 133.33 490.86 139.68 489.65 145.17 C 481.24 176.66 474.27 208.52 465.58 239.92 C 460.06 262.66 454.39 285.36 448.34 307.96 C 448.01 310.69 444.49 312.67 446.10 315.54 C 444.75 316.57 443.40 317.59 442.05 318.61 C 442.56 318.52 443.58 318.33 444.09 318.23 C 444.29 321.70 443.46 325.38 445.19 328.58 C 444.86 329.08 444.53 329.58 444.21 330.08 C 450.62 328.67 456.09 324.94 461.10 320.84 C 461.59 320.79 462.57 320.67 463.05 320.61 C 458.20 327.94 449.26 330.34 441.72 333.85 C 441.81 329.28 442.95 324.64 441.70 320.12 C 436.16 317.39 430.31 315.40 424.50 313.34 C 405.76 306.32 386.89 299.66 368.18 292.56 C 336.05 280.66 303.75 269.25 271.54 257.57 C 246.47 248.17 221.27 239.08 196.19 229.72 C 194.95 229.35 193.83 228.52 194.20 227.06 C 194.83 222.12 193.83 217.08 195.06 212.21 C 197.25 201.14 199.83 190.14 201.89 179.05 C 197.51 180.72 193.18 179.04 189.01 177.61 C 177.45 183.90 165.69 189.83 153.90 195.69 C 151.26 196.94 149.17 199.53 146.08 199.64 C 141.90 199.98 137.63 199.75 133.59 198.59 C 133.60 199.15 133.63 200.29 133.64 200.85 C 133.65 201.60 133.66 203.09 133.66 203.84 C 133.65 205.33 133.62 206.83 133.59 208.32 C 134.30 208.81 135.00 209.33 135.68 209.87 C 135.44 209.75 134.95 209.50 134.71 209.38 C 134.31 210.06 133.51 211.41 133.12 212.09 C 133.50 208.79 133.32 205.47 133.11 202.17 C 122.07 201.34 110.50 203.42 99.92 199.36 C 105.76 198.54 111.83 200.43 117.48 198.28 C 118.20 198.12 119.64 197.79 120.36 197.62 C 124.17 197.20 127.98 196.21 131.10 193.87 C 131.99 193.33 132.87 192.78 133.76 192.25 L 135.59 192.31 C 134.42 193.89 133.70 195.71 133.05 197.54 C 137.31 198.24 141.65 198.84 145.97 198.30 C 149.15 198.14 151.35 195.55 154.08 194.25 C 165.23 188.88 176.22 183.16 187.09 177.24 C 189.66 175.53 192.47 177.69 195.10 178.15 C 197.47 179.06 199.89 177.88 202.25 177.51 C 202.33 176.33 202.41 175.16 202.49 173.99 C 200.97 173.62 199.47 173.23 197.98 172.80 C 198.61 172.80 199.89 172.79 200.53 172.78 C 201.43 172.90 202.32 173.05 203.22 173.22 C 212.18 132.13 221.06 91.00 230.41 49.99 Z" fill="#0d0e3b" opacity="1.00" stroke="#0d0e3b" stroke-width="0.25"/>
<path d="M 224.75 105.49 C 228.99 87.68 232.32 69.61 237.55 52.07 C 260.83 59.66 283.75 68.36 306.99 76.09 C 321.32 81.10 335.65 86.11 350.04 90.98 C 353.87 92.49 358.02 93.26 361.60 95.38 C 360.51 96.70 359.42 98.03 358.33 99.35 C 358.37 100.09 358.40 100.82 358.45 101.56 C 355.29 102.44 352.28 104.18 348.92 104.08 C 344.69 104.06 340.46 103.98 336.24 104.19 C 336.13 106.74 336.02 109.28 335.90 111.83 C 333.36 111.98 330.82 112.13 328.28 112.28 C 328.13 113.76 327.98 115.24 327.84 116.72 C 325.49 116.96 323.15 117.21 320.81 117.46 C 320.58 118.49 320.34 119.52 320.11 120.55 C 317.44 120.25 314.75 120.07 312.06 119.98 C 313.03 121.34 314.01 122.69 315.00 124.04 C 313.09 124.95 311.12 125.73 309.12 126.40 L 309.02 126.44 C 308.11 126.10 307.28 125.73 306.35 125.57 C 300.38 125.07 295.04 122.11 289.29 120.68 C 284.65 119.55 280.40 116.52 275.52 116.63 C 273.03 118.23 273.05 121.50 272.38 124.05 C 270.96 125.17 269.08 126.16 268.92 128.18 C 267.58 136.24 264.99 144.00 263.12 151.94 C 261.52 158.85 257.71 165.38 258.31 172.67 C 258.87 173.37 259.42 174.09 259.95 174.83 C 259.86 176.19 259.82 177.54 259.83 178.90 C 261.50 180.90 263.84 182.16 265.93 183.65 C 267.92 186.34 270.42 188.55 273.02 190.62 C 272.06 190.58 271.11 190.54 270.16 190.50 C 271.47 192.37 272.04 194.54 272.09 196.81 C 268.69 196.85 264.91 196.62 262.64 199.64 C 257.90 200.65 252.96 199.79 248.15 199.80 C 248.01 197.23 247.89 194.65 247.76 192.08 C 245.24 192.06 242.73 192.05 240.21 192.07 C 240.07 194.67 239.92 197.26 239.79 199.86 C 237.33 199.96 234.88 200.06 232.43 200.16 C 232.20 200.81 231.73 202.12 231.49 202.77 C 228.80 202.88 226.09 202.92 223.43 203.36 C 223.46 204.44 223.58 205.52 223.68 206.60 C 220.99 205.36 218.07 204.73 215.17 205.65 C 211.39 205.54 207.94 203.47 204.27 202.64 C 204.34 197.68 205.84 192.92 206.83 188.10 C 211.34 167.06 215.91 146.04 220.30 124.98 L 220.59 125.15 C 220.89 125.32 221.48 125.66 221.77 125.83 C 222.62 122.85 222.84 119.76 222.62 116.68 C 222.83 112.88 224.09 109.22 224.75 105.49 Z" fill="#e75749" opacity="1.00" stroke="#e75749" stroke-width="0.25"/>
<path d="M 361.60 95.38 L 361.80 95.13 C 402.70 108.94 443.48 123.09 484.43 136.73 C 484.42 138.18 484.28 139.61 484.00 141.04 C 477.96 164.62 472.31 188.30 466.41 211.92 C 463.26 224.29 460.61 236.78 457.02 249.03 C 453.68 261.92 450.84 274.94 447.22 287.76 C 418.69 278.22 390.61 267.35 362.13 257.66 C 348.91 252.41 335.39 247.95 322.02 243.10 L 322.97 242.66 C 327.47 243.04 331.78 241.89 335.63 239.56 C 335.86 238.43 336.10 237.31 336.34 236.19 C 338.75 236.07 341.16 235.94 343.58 235.82 C 343.85 234.66 344.12 233.50 344.40 232.35 C 345.51 232.13 346.64 231.92 347.76 231.71 C 347.89 229.58 348.03 227.44 348.25 225.32 C 350.76 221.51 349.95 216.63 351.93 212.59 C 356.22 212.89 360.08 215.53 364.08 217.05 C 363.09 214.56 360.56 213.60 358.34 212.55 C 358.70 212.18 359.42 211.44 359.78 211.08 C 359.26 210.21 358.75 209.34 358.23 208.48 C 362.52 209.81 366.65 211.57 370.90 213.01 C 373.13 213.84 376.11 213.68 377.51 211.49 C 379.46 208.03 380.19 204.07 381.31 200.30 C 383.90 190.11 386.81 180.00 389.53 169.85 C 390.40 167.51 389.45 164.88 386.92 164.22 C 370.94 158.95 354.99 153.50 339.01 148.19 C 328.75 144.46 318.11 141.91 307.90 138.03 C 308.26 135.40 309.13 132.88 310.42 130.56 C 311.34 129.00 309.87 127.61 309.02 126.44 L 309.12 126.40 C 311.12 125.73 313.09 124.95 315.00 124.04 C 314.01 122.69 313.03 121.34 312.06 119.98 C 314.75 120.07 317.44 120.25 320.11 120.55 C 320.34 119.52 320.58 118.49 320.81 117.46 C 323.15 117.21 325.49 116.96 327.84 116.72 C 327.98 115.24 328.13 113.76 328.28 112.28 C 330.82 112.13 333.36 111.98 335.90 111.83 C 336.02 109.28 336.13 106.74 336.24 104.19 C 340.46 103.98 344.69 104.06 348.92 104.08 C 352.28 104.18 355.29 102.44 358.45 101.56 C 358.40 100.82 358.37 100.09 358.33 99.35 C 359.42 98.03 360.51 96.70 361.60 95.38 Z" fill="#ee5e4e" opacity="1.00" stroke="#ee5e4e" stroke-width="0.25"/>
<path d="M 110.80 111.35 C 111.15 111.46 111.83 111.68 112.17 111.78 C 117.37 121.91 120.90 132.98 122.05 144.31 C 119.70 150.05 116.93 155.60 114.43 161.28 C 113.89 161.37 112.82 161.53 112.28 161.62 C 111.88 160.29 111.47 158.97 111.11 157.64 C 110.73 145.13 111.10 132.60 111.08 120.08 L 110.07 120.06 C 109.60 128.13 109.80 136.22 109.28 144.29 C 108.99 140.87 108.68 137.45 108.45 134.03 C 107.55 139.89 108.00 145.82 107.72 151.72 C 105.64 148.15 103.43 144.66 101.47 141.01 C 101.22 141.27 100.72 141.79 100.47 142.05 C 100.18 142.34 99.59 142.91 99.30 143.20 C 101.73 147.85 104.15 152.52 107.07 156.89 C 110.71 161.41 109.21 167.58 110.16 172.90 C 112.02 170.34 113.62 167.60 114.85 164.68 C 119.14 154.98 123.72 145.38 127.35 135.40 C 128.97 131.69 131.92 128.71 134.87 126.00 C 137.89 134.35 136.73 143.60 133.86 151.83 C 132.38 155.92 131.07 160.21 128.38 163.69 C 127.55 164.69 126.67 165.65 125.76 166.57 C 121.71 170.89 116.50 173.97 110.80 175.54 C 108.43 174.30 105.91 173.34 103.20 173.21 C 103.73 172.98 104.78 172.52 105.30 172.29 C 102.67 168.25 100.25 163.92 96.46 160.84 C 95.45 159.90 94.44 158.99 93.46 158.04 C 89.02 148.72 87.87 138.08 88.26 127.85 C 92.54 131.45 95.52 136.29 99.57 140.09 C 102.56 130.23 106.14 120.55 110.80 111.35 Z" fill="#6ebc5a" opacity="1.00" stroke="#6ebc5a" stroke-width="0.25"/>
<path d="M 275.52 116.63 C 280.40 116.52 284.65 119.55 289.29 120.68 C 295.04 122.11 300.38 125.07 306.35 125.57 C 307.02 126.47 307.60 127.45 307.87 128.56 C 299.53 125.12 290.78 122.81 282.30 119.73 C 280.04 118.89 277.68 118.22 275.24 118.32 L 275.21 118.32 C 274.47 120.55 273.76 122.80 273.43 125.14 C 274.24 126.86 276.53 126.90 278.13 127.41 C 283.92 128.27 289.32 130.68 295.11 131.50 C 298.84 132.10 302.39 133.41 306.06 134.26 C 306.32 134.51 306.85 135.02 307.12 135.27 C 307.62 133.16 308.18 131.05 308.73 128.96 C 309.33 129.45 309.91 129.96 310.42 130.56 C 309.13 132.88 308.26 135.40 307.90 138.03 C 318.11 141.91 328.75 144.46 339.01 148.19 C 354.99 153.50 370.94 158.95 386.92 164.22 C 389.45 164.88 390.40 167.51 389.53 169.85 C 386.81 180.00 383.90 190.11 381.31 200.30 C 380.19 204.07 379.46 208.03 377.51 211.49 C 376.11 213.68 373.13 213.84 370.90 213.01 C 366.65 211.57 362.52 209.81 358.23 208.48 C 334.93 200.59 311.91 191.89 288.53 184.26 C 288.20 184.70 287.55 185.59 287.23 186.03 L 286.36 186.19 C 286.50 185.25 286.65 184.32 286.80 183.39 C 278.65 179.90 270.13 177.21 261.52 175.11 C 261.39 175.59 261.12 176.56 260.98 177.04 C 260.73 176.49 260.21 175.38 259.95 174.83 C 259.42 174.09 258.87 173.37 258.31 172.67 C 257.71 165.38 261.52 158.85 263.12 151.94 C 264.99 144.00 267.58 136.24 268.92 128.18 C 269.08 126.16 270.96 125.17 272.38 124.05 C 273.05 121.50 273.03 118.23 275.52 116.63 Z" fill="#370e19" opacity="1.00" stroke="#370e19" stroke-width="0.25"/>
<path d="M 220.59 125.15 C 220.55 122.21 221.72 119.43 222.62 116.68 C 222.84 119.76 222.62 122.85 221.77 125.83 C 221.48 125.66 220.89 125.32 220.59 125.15 Z" fill="#c4595c" opacity="1.00" stroke="#c4595c" stroke-width="0.25"/>
<path d="M 275.21 118.32 L 275.24 118.32 C 276.58 119.10 277.91 119.92 279.37 120.45 C 288.94 123.63 298.51 126.79 308.16 129.71 C 307.57 131.28 306.88 132.80 306.06 134.26 C 302.39 133.41 298.84 132.10 295.11 131.50 C 289.32 130.68 283.92 128.27 278.13 127.41 C 276.53 126.90 274.24 126.86 273.43 125.14 C 273.76 122.80 274.47 120.55 275.21 118.32 Z" fill="#ea5649" opacity="1.00" stroke="#ea5649" stroke-width="0.25"/>
<path d="M 275.24 118.32 C 277.68 118.22 280.04 118.89 282.30 119.73 C 290.78 122.81 299.53 125.12 307.87 128.56 C 307.60 127.45 307.02 126.47 306.35 125.57 C 307.28 125.73 308.11 126.10 309.02 126.44 C 309.87 127.61 311.34 129.00 310.42 130.56 C 309.91 129.96 309.33 129.45 308.73 128.96 C 308.18 131.05 307.62 133.16 307.12 135.27 C 306.85 135.02 306.32 134.51 306.06 134.26 C 306.88 132.80 307.57 131.28 308.16 129.71 C 298.51 126.79 288.94 123.63 279.37 120.45 C 277.91 119.92 276.58 119.10 275.24 118.32 Z" fill="#fbebec" opacity="1.00" stroke="#fbebec" stroke-width="0.25"/>
<path d="M 110.07 120.06 L 111.08 120.08 C 111.10 132.60 110.73 145.13 111.11 157.64 C 111.03 161.22 110.92 164.80 111.09 168.39 C 112.28 166.05 113.37 163.67 114.43 161.28 C 116.93 155.60 119.70 150.05 122.05 144.31 C 123.54 141.19 125.29 138.18 127.35 135.40 C 123.72 145.38 119.14 154.98 114.85 164.68 C 113.62 167.60 112.02 170.34 110.16 172.90 C 109.21 167.58 110.71 161.41 107.07 156.89 C 104.15 152.52 101.73 147.85 99.30 143.20 C 99.59 142.91 100.18 142.34 100.47 142.05 C 103.11 147.65 106.21 153.05 109.77 158.12 C 109.41 153.52 109.14 148.90 109.28 144.29 C 109.80 136.22 109.60 128.13 110.07 120.06 Z" fill="#2f6628" opacity="1.00" stroke="#2f6628" stroke-width="0.25"/>
<path d="M 478.16 122.67 C 482.31 122.20 485.77 125.10 489.85 125.25 C 490.35 125.73 490.86 126.22 491.38 126.72 L 491.44 127.26 C 492.15 131.16 493.11 135.14 491.68 139.02 C 484.78 164.98 478.58 191.11 472.00 217.15 C 469.67 227.90 466.21 238.36 463.72 249.07 C 460.54 263.84 456.24 278.33 452.83 293.04 C 451.10 299.66 449.57 306.34 447.31 312.80 C 448.45 312.75 449.72 312.29 449.95 311.00 C 452.40 302.52 454.85 294.03 456.95 285.45 L 457.23 286.50 C 455.81 293.34 453.88 300.07 452.38 306.90 C 451.40 311.65 448.36 315.90 444.09 318.23 C 443.58 318.33 442.56 318.52 442.05 318.61 C 443.40 317.59 444.75 316.57 446.10 315.54 C 444.49 312.67 448.01 310.69 448.34 307.96 C 454.39 285.36 460.06 262.66 465.58 239.92 C 474.27 208.52 481.24 176.66 489.65 145.17 C 490.86 139.68 493.71 133.33 489.99 128.17 C 486.84 125.00 482.12 124.38 478.16 122.67 Z" fill="#cfb5d1" opacity="1.00" stroke="#cfb5d1" stroke-width="0.25"/>
<path d="M 270.77 125.33 C 273.22 126.54 275.65 127.81 277.96 129.28 C 281.40 127.89 284.67 130.24 287.97 131.01 C 291.44 132.30 295.43 131.03 298.65 133.16 C 301.08 134.81 304.22 134.50 306.53 136.36 C 306.55 137.07 306.59 138.48 306.61 139.19 C 332.76 146.85 358.41 156.10 384.32 164.52 C 386.33 165.22 389.61 166.07 388.49 168.94 C 386.20 176.93 384.31 185.03 381.98 193.01 C 380.35 198.71 379.42 204.67 376.64 209.96 C 376.29 209.03 376.04 208.08 375.78 207.13 C 375.27 208.40 374.44 209.01 373.31 208.97 C 373.08 208.53 372.61 207.64 372.37 207.19 C 371.82 207.11 370.72 206.95 370.17 206.87 C 370.24 207.47 370.38 208.65 370.45 209.24 C 372.01 210.11 373.69 210.79 375.20 211.79 L 375.76 212.16 C 373.72 212.79 371.81 212.05 369.93 211.41 C 343.49 202.12 317.04 192.86 290.60 183.54 C 281.43 179.72 271.90 176.87 262.43 173.89 C 260.95 173.36 258.96 173.00 258.84 171.06 C 259.45 166.23 261.49 161.73 262.72 157.04 C 265.54 146.50 268.67 136.04 270.77 125.33 Z" fill="#fbf8fa" opacity="1.00" stroke="#fbf8fa" stroke-width="0.25"/>
<path d="M 491.68 139.02 C 493.11 135.14 492.15 131.16 491.44 127.26 C 495.78 130.54 494.66 136.48 493.37 140.99 C 486.82 165.58 480.85 190.33 474.75 215.04 C 468.67 238.47 462.85 261.97 456.95 285.45 C 454.85 294.03 452.40 302.52 449.95 311.00 C 449.72 312.29 448.45 312.75 447.31 312.80 C 449.57 306.34 451.10 299.66 452.83 293.04 C 456.24 278.33 460.54 263.84 463.72 249.07 C 466.21 238.36 469.67 227.90 472.00 217.15 C 478.58 191.11 484.78 164.98 491.68 139.02 Z" fill="#0d0f34" opacity="1.00" stroke="#0d0f34" stroke-width="0.25"/>
<path d="M 107.72 151.72 C 108.00 145.82 107.55 139.89 108.45 134.03 C 108.68 137.45 108.99 140.87 109.28 144.29 C 109.14 148.90 109.41 153.52 109.77 158.12 C 106.21 153.05 103.11 147.65 100.47 142.05 C 100.72 141.79 101.22 141.27 101.47 141.01 C 103.43 144.66 105.64 148.15 107.72 151.72 Z" fill="#77b86d" opacity="1.00" stroke="#77b86d" stroke-width="0.25"/>
<path d="M 295.11 135.14 C 296.73 134.74 297.32 135.34 296.89 136.95 C 295.27 137.35 294.67 136.74 295.11 135.14 Z" fill="#918e95" opacity="1.00" stroke="#918e95" stroke-width="0.25"/>
<path d="M 298.24 136.14 C 299.51 136.85 300.78 137.60 302.00 138.42 C 300.45 138.21 297.81 138.52 298.24 136.14 Z" fill="#5d6b6c" opacity="1.00" stroke="#5d6b6c" stroke-width="0.25"/>
<path d="M 275.85 137.56 C 278.54 138.11 281.18 138.91 283.75 139.89 C 283.43 141.34 283.12 142.79 282.81 144.24 C 282.16 144.26 280.84 144.31 280.18 144.33 C 278.13 144.10 276.30 143.10 274.44 142.31 C 274.94 140.73 275.40 139.15 275.85 137.56 Z" fill="#4f70cb" opacity="1.00" stroke="#4f70cb" stroke-width="0.25"/>
<path d="M 277.19 140.28 C 278.52 138.96 280.54 140.62 281.93 141.19 C 283.34 144.72 275.29 142.24 277.19 140.28 Z" fill="#3d70f2" opacity="1.00" stroke="#3d70f2" stroke-width="0.25"/>
<path d="M 283.75 139.89 C 284.65 140.06 285.55 140.24 286.46 140.41 C 285.13 141.88 284.40 143.72 283.95 145.63 C 284.52 145.89 285.66 146.40 286.24 146.66 C 283.98 146.64 282.07 145.40 280.18 144.33 C 280.84 144.31 282.16 144.26 282.81 144.24 C 283.12 142.79 283.43 141.34 283.75 139.89 Z" fill="#caa5dd" opacity="1.00" stroke="#caa5dd" stroke-width="0.25"/>
<path d="M 283.95 145.63 C 284.40 143.72 285.13 141.88 286.46 140.41 C 287.98 141.34 290.27 141.27 291.31 142.89 C 291.11 144.72 290.09 146.33 289.40 148.01 C 288.61 147.67 287.03 147.00 286.24 146.66 C 285.66 146.40 284.52 145.89 283.95 145.63 Z" fill="#fe397b" opacity="1.00" stroke="#fe397b" stroke-width="0.25"/>
<path d="M 291.99 142.91 C 294.32 142.32 296.77 144.12 299.11 144.61 C 298.67 146.30 298.47 148.07 297.70 149.66 C 295.17 150.10 292.67 148.66 290.23 148.10 C 290.63 146.31 290.83 144.40 291.99 142.91 Z" fill="#ed335e" opacity="1.00" stroke="#ed335e" stroke-width="0.25"/>
<path d="M 268.47 153.29 C 268.80 150.61 268.66 147.26 271.25 145.62 L 271.16 146.63 C 270.92 148.80 270.48 150.95 269.86 153.05 L 268.47 153.29 Z" fill="#b0926b" opacity="1.00" stroke="#b0926b" stroke-width="0.25"/>
<path d="M 299.70 145.33 C 301.38 145.47 303.04 145.82 304.57 146.53 C 304.43 147.40 304.15 149.13 304.00 150.00 C 303.89 150.60 303.67 151.80 303.56 152.39 C 301.68 151.89 299.85 151.22 298.08 150.40 C 298.62 148.71 299.18 147.03 299.70 145.33 Z" fill="#dcde30" opacity="1.00" stroke="#dcde30" stroke-width="0.25"/>
<path d="M 271.16 146.63 L 271.96 147.20 C 273.22 148.12 274.96 149.06 273.86 150.88 C 273.90 153.11 271.32 152.56 269.86 153.05 C 270.48 150.95 270.92 148.80 271.16 146.63 Z" fill="#f4bf59" opacity="1.00" stroke="#f4bf59" stroke-width="0.25"/>
<path d="M 271.96 147.20 C 273.50 147.16 275.04 147.35 275.96 148.75 C 275.40 150.75 274.89 152.76 274.40 154.78 C 272.45 154.17 270.48 153.63 268.47 153.29 L 269.86 153.05 C 271.32 152.56 273.90 153.11 273.86 150.88 C 274.96 149.06 273.22 148.12 271.96 147.20 Z" fill="#e2d2b3" opacity="1.00" stroke="#e2d2b3" stroke-width="0.25"/>
<path d="M 304.57 146.53 C 309.03 147.65 313.29 149.38 317.74 150.52 C 317.21 150.87 316.16 151.56 315.63 151.91 C 315.50 153.49 315.37 155.08 315.27 156.67 C 314.91 156.42 314.18 155.94 313.82 155.69 C 313.72 153.83 313.74 151.97 313.74 150.11 C 312.56 149.76 311.39 149.41 310.22 149.08 C 308.04 148.38 305.35 147.47 304.00 150.00 C 304.15 149.13 304.43 147.40 304.57 146.53 Z" fill="#6ebc5a" opacity="1.00" stroke="#6ebc5a" stroke-width="0.25"/>
<path d="M 304.00 150.00 C 305.35 147.47 308.04 148.38 310.22 149.08 C 309.14 150.60 308.06 152.12 306.98 153.63 C 305.84 153.20 304.71 152.79 303.56 152.39 C 303.67 151.80 303.89 150.60 304.00 150.00 Z" fill="#0ac854" opacity="1.00" stroke="#0ac854" stroke-width="0.25"/>
<path d="M 275.96 148.75 C 277.90 149.29 279.86 149.78 281.83 150.25 C 281.71 152.47 281.32 154.68 280.27 156.67 C 278.30 156.07 276.34 155.45 274.40 154.78 C 274.89 152.76 275.40 150.75 275.96 148.75 Z" fill="#6b99d3" opacity="1.00" stroke="#6b99d3" stroke-width="0.25"/>
<path d="M 310.22 149.08 C 311.39 149.41 312.56 149.76 313.74 150.11 C 313.74 151.97 313.72 153.83 313.82 155.69 C 311.47 155.27 309.20 154.48 306.98 153.63 C 308.06 152.12 309.14 150.60 310.22 149.08 Z" fill="#31d670" opacity="1.00" stroke="#31d670" stroke-width="0.25"/>
<path d="M 276.92 150.96 C 279.44 149.20 282.00 153.12 279.02 154.43 C 276.53 155.13 276.06 152.76 276.92 150.96 Z" fill="#3a91f9" opacity="1.00" stroke="#3a91f9" stroke-width="0.25"/>
<path d="M 315.63 151.91 C 316.16 151.56 317.21 150.87 317.74 150.52 C 318.51 151.20 320.81 151.24 320.73 152.50 C 320.37 153.94 319.96 155.37 319.56 156.81 C 318.96 156.93 317.75 157.18 317.15 157.30 C 316.68 157.15 315.74 156.83 315.27 156.67 C 315.37 155.08 315.50 153.49 315.63 151.91 Z" fill="#ed3e5f" opacity="1.00" stroke="#ed3e5f" stroke-width="0.25"/>
<path d="M 288.09 152.94 C 290.73 153.45 293.31 154.27 295.81 155.27 C 295.35 157.11 294.89 158.95 294.35 160.77 C 293.77 160.65 292.61 160.41 292.03 160.29 L 290.49 159.82 C 291.50 159.25 292.51 158.67 293.51 158.08 C 293.37 157.31 293.08 155.78 292.93 155.02 C 291.63 154.98 290.34 154.95 289.05 154.91 C 289.24 156.47 289.42 158.02 289.68 159.57 C 285.77 159.21 287.93 155.23 288.09 152.94 Z" fill="#d8506e" opacity="1.00" stroke="#d8506e" stroke-width="0.25"/>
<path d="M 320.73 152.50 C 323.41 153.20 326.44 153.25 328.59 155.24 C 328.47 157.06 328.36 158.88 328.27 160.70 C 324.41 160.09 320.87 158.39 317.15 157.30 C 317.75 157.18 318.96 156.93 319.56 156.81 C 319.96 155.37 320.37 153.94 320.73 152.50 Z" fill="#f0ba54" opacity="1.00" stroke="#f0ba54" stroke-width="0.25"/>
<path d="M 289.05 154.91 C 290.34 154.95 291.63 154.98 292.93 155.02 C 293.08 155.78 293.37 157.31 293.51 158.08 C 292.51 158.67 291.50 159.25 290.49 159.82 C 290.29 159.76 289.88 159.63 289.68 159.57 C 289.42 158.02 289.24 156.47 289.05 154.91 Z" fill="#fc2d73" opacity="1.00" stroke="#fc2d73" stroke-width="0.25"/>
<path d="M 295.81 155.27 C 298.42 156.24 301.74 156.31 303.73 158.37 C 303.72 160.15 303.61 161.93 303.60 163.72 C 299.60 163.11 295.79 161.74 292.03 160.29 C 292.61 160.41 293.77 160.65 294.35 160.77 C 294.89 158.95 295.35 157.11 295.81 155.27 Z" fill="#f8c01b" opacity="1.00" stroke="#f8c01b" stroke-width="0.25"/>
<path d="M 328.59 155.24 C 331.17 156.07 334.95 156.14 336.39 158.58 C 336.33 159.97 336.28 161.36 336.25 162.75 C 333.50 162.69 330.82 162.12 328.24 161.19 L 328.27 160.70 C 328.36 158.88 328.47 157.06 328.59 155.24 Z" fill="#3192de" opacity="1.00" stroke="#3192de" stroke-width="0.25"/>
<path d="M 267.25 157.20 C 269.36 157.39 271.42 157.89 273.28 158.92 C 273.40 160.18 273.53 161.45 273.66 162.71 C 272.99 162.91 271.65 163.30 270.99 163.49 C 269.34 163.71 267.87 162.71 266.32 162.33 C 266.50 160.59 266.82 158.88 267.25 157.20 Z" fill="#f7a640" opacity="1.00" stroke="#f7a640" stroke-width="0.25"/>
<path d="M 93.46 158.04 C 94.44 158.99 95.45 159.90 96.46 160.84 C 97.83 163.38 99.24 165.90 100.75 168.36 C 99.47 169.51 98.17 170.65 96.88 171.79 C 96.45 171.30 95.60 170.32 95.18 169.83 C 95.08 169.37 94.89 168.43 94.79 167.96 C 95.84 168.23 96.90 168.50 97.95 168.77 C 97.58 167.11 97.19 165.44 96.50 163.88 C 96.18 163.48 95.54 162.67 95.23 162.26 C 94.96 161.93 94.42 161.26 94.15 160.93 C 93.98 160.21 93.64 158.76 93.46 158.04 Z" fill="#8aab71" opacity="1.00" stroke="#8aab71" stroke-width="0.25"/>
<path d="M 111.11 157.64 C 111.47 158.97 111.88 160.29 112.28 161.62 C 112.82 161.53 113.89 161.37 114.43 161.28 C 113.37 163.67 112.28 166.05 111.09 168.39 C 110.92 164.80 111.03 161.22 111.11 157.64 Z" fill="#7bb076" opacity="1.00" stroke="#7bb076" stroke-width="0.25"/>
<path d="M 162.53 158.27 C 174.68 164.39 187.84 168.03 200.53 172.78 C 199.89 172.79 198.61 172.80 197.98 172.80 C 186.14 169.16 174.27 165.33 163.14 159.84 C 160.27 164.80 158.87 171.39 153.29 174.10 C 148.42 176.52 143.66 179.24 138.49 180.98 C 138.09 184.85 138.48 189.27 135.59 192.31 L 133.76 192.25 C 137.47 187.29 136.28 180.70 135.98 174.95 C 136.04 170.72 132.39 167.72 128.69 166.49 L 127.70 166.50 C 127.22 166.52 126.25 166.56 125.76 166.57 C 126.67 165.65 127.55 164.69 128.38 163.69 C 131.59 165.70 135.43 167.34 137.15 170.97 C 138.23 173.80 138.08 176.91 137.84 179.87 C 141.75 178.75 145.27 176.65 148.96 174.98 C 151.70 173.48 154.87 172.26 156.64 169.54 C 158.98 165.99 160.36 161.92 162.53 158.27 Z" fill="#200518" opacity="1.00" stroke="#200518" stroke-width="0.25"/>
<path d="M 303.73 158.37 C 307.20 158.70 310.30 160.39 313.57 161.44 L 313.49 161.52 C 311.87 162.66 311.40 164.59 310.89 166.39 C 308.51 165.38 305.66 165.32 303.60 163.72 C 303.61 161.93 303.72 160.15 303.73 158.37 Z" fill="#36cb62" opacity="1.00" stroke="#36cb62" stroke-width="0.25"/>
<path d="M 273.28 158.92 C 275.66 159.49 278.14 159.83 280.26 161.13 L 279.98 161.97 C 279.51 163.29 278.97 164.58 278.47 165.89 C 275.80 165.77 273.29 164.82 270.99 163.49 C 271.65 163.30 272.99 162.91 273.66 162.71 C 273.53 161.45 273.40 160.18 273.28 158.92 Z" fill="#ffc058" opacity="1.00" stroke="#ffc058" stroke-width="0.25"/>
<path d="M 336.39 158.58 C 343.30 159.67 349.85 162.33 356.49 164.47 C 355.58 166.21 354.63 167.93 353.49 169.53 C 347.75 167.49 341.78 166.06 336.27 163.43 L 336.25 162.75 C 336.28 161.36 336.33 159.97 336.39 158.58 Z" fill="#ef3581" opacity="1.00" stroke="#ef3581" stroke-width="0.25"/>
<path d="M 163.14 159.84 C 174.27 165.33 186.14 169.16 197.98 172.80 C 199.47 173.23 200.97 173.62 202.49 173.99 C 202.41 175.16 202.33 176.33 202.25 177.51 C 199.89 177.88 197.47 179.06 195.10 178.15 C 192.47 177.69 189.66 175.53 187.09 177.24 C 176.22 183.16 165.23 188.88 154.08 194.25 C 151.35 195.55 149.15 198.14 145.97 198.30 C 141.65 198.84 137.31 198.24 133.05 197.54 C 133.70 195.71 134.42 193.89 135.59 192.31 C 138.48 189.27 138.09 184.85 138.49 180.98 C 143.66 179.24 148.42 176.52 153.29 174.10 C 158.87 171.39 160.27 164.80 163.14 159.84 Z" fill="#fbebed" opacity="1.00" stroke="#fbebed" stroke-width="0.25"/>
<path d="M 80.52 172.98 C 81.48 166.22 88.30 162.78 94.15 160.93 C 94.42 161.26 94.96 161.93 95.23 162.26 C 91.38 164.22 86.67 165.43 84.16 169.22 C 81.93 173.41 82.46 178.38 82.23 182.96 C 82.33 186.52 81.88 191.35 85.61 193.29 C 95.32 198.50 106.72 198.71 117.48 198.28 C 111.83 200.43 105.76 198.54 99.92 199.36 C 110.50 203.42 122.07 201.34 133.11 202.17 C 133.32 205.47 133.50 208.79 133.12 212.09 C 132.38 215.45 130.97 219.13 127.63 220.68 C 119.51 224.83 110.02 223.98 101.23 223.39 C 96.50 222.48 91.22 220.72 88.74 216.24 C 85.94 210.88 86.48 204.63 86.19 198.79 C 81.02 201.14 76.25 204.53 70.52 205.43 C 66.65 207.79 63.03 210.61 59.37 213.28 C 58.25 216.17 59.03 219.48 59.19 222.51 C 68.25 225.68 77.06 229.52 86.13 232.67 C 87.68 233.15 89.15 233.86 90.33 234.99 C 88.81 234.97 87.33 234.63 85.95 234.01 C 76.65 230.27 67.11 227.13 57.96 223.05 C 57.56 219.76 57.71 216.37 57.90 213.06 C 60.29 210.29 63.86 208.91 66.55 206.45 C 69.64 203.53 74.22 203.78 77.74 201.66 C 80.35 200.17 83.08 198.95 85.76 197.60 C 86.02 194.76 81.38 193.99 80.99 190.94 C 79.63 185.10 79.88 178.91 80.52 172.98 Z" fill="#370e19" opacity="1.00" stroke="#370e19" stroke-width="0.25"/>
<path d="M 96.46 160.84 C 100.25 163.92 102.67 168.25 105.30 172.29 C 104.78 172.52 103.73 172.98 103.20 173.21 C 105.91 173.34 108.43 174.30 110.80 175.54 C 116.50 173.97 121.71 170.89 125.76 166.57 C 126.25 166.56 127.22 166.52 127.70 166.50 C 129.91 167.96 133.56 169.84 132.41 173.06 C 129.98 176.16 126.08 177.65 122.46 178.90 C 112.25 179.60 101.44 180.56 91.83 176.25 C 89.94 175.23 87.22 174.47 87.01 171.94 C 88.03 169.06 91.01 168.01 93.82 167.82 C 94.16 168.32 94.84 169.33 95.18 169.83 C 95.60 170.32 96.45 171.30 96.88 171.79 C 98.17 170.65 99.47 169.51 100.75 168.36 C 99.24 165.90 97.83 163.38 96.46 160.84 Z" fill="#0f103a" opacity="1.00" stroke="#0f103a" stroke-width="0.25"/>
<path d="M 280.26 161.13 C 281.97 161.42 283.70 161.66 285.43 161.89 C 285.63 164.21 285.48 169.26 281.92 167.59 C 283.52 166.24 284.51 164.41 284.20 162.27 C 283.47 162.28 282.02 162.32 281.29 162.34 C 280.95 164.02 280.61 165.70 280.27 167.38 C 279.04 165.79 279.65 163.74 279.98 161.97 L 280.26 161.13 Z" fill="#5d6b6c" opacity="1.00" stroke="#5d6b6c" stroke-width="0.25"/>
<path d="M 95.23 162.26 C 95.54 162.67 96.18 163.48 96.50 163.88 C 95.69 164.63 94.89 165.38 94.08 166.13 C 90.59 166.38 86.71 167.61 85.15 171.05 C 84.53 173.82 87.43 175.40 89.45 176.51 C 99.57 181.49 111.74 182.60 122.46 178.90 C 126.08 177.65 129.98 176.16 132.41 173.06 C 133.56 169.84 129.91 167.96 127.70 166.50 L 128.69 166.49 C 132.39 167.72 136.04 170.72 135.98 174.95 C 136.28 180.70 137.47 187.29 133.76 192.25 C 132.87 192.78 131.99 193.33 131.10 193.87 C 130.61 193.91 129.63 193.98 129.14 194.02 C 131.65 191.82 134.64 189.54 135.20 186.03 C 135.72 182.20 135.29 178.33 135.09 174.50 C 130.30 178.01 125.01 181.08 119.02 181.88 C 111.13 182.83 102.97 182.85 95.26 180.70 C 91.23 179.59 87.64 177.38 83.85 175.68 C 83.82 180.83 82.29 186.85 85.60 191.33 C 89.63 195.02 95.30 195.92 100.50 196.74 C 107.06 197.98 113.75 196.97 120.36 197.62 C 119.64 197.79 118.20 198.12 117.48 198.28 C 106.72 198.71 95.32 198.50 85.61 193.29 C 81.88 191.35 82.33 186.52 82.23 182.96 C 82.46 178.38 81.93 173.41 84.16 169.22 C 86.67 165.43 91.38 164.22 95.23 162.26 Z" fill="#e18076" opacity="1.00" stroke="#e18076" stroke-width="0.25"/>
<path d="M 281.29 162.34 C 282.02 162.32 283.47 162.28 284.20 162.27 C 284.51 164.41 283.52 166.24 281.92 167.59 C 281.50 167.60 280.64 167.63 280.22 167.64 L 280.27 167.38 C 280.61 165.70 280.95 164.02 281.29 162.34 Z" fill="#11add1" opacity="1.00" stroke="#11add1" stroke-width="0.25"/>
<path d="M 310.89 166.39 C 311.40 164.59 311.87 162.66 313.49 161.52 C 315.27 161.92 317.03 162.45 318.80 162.91 C 318.03 164.81 317.24 166.70 316.41 168.58 C 315.27 168.17 314.13 167.76 312.99 167.33 C 312.47 167.09 311.41 166.62 310.89 166.39 Z" fill="#1896e0" opacity="1.00" stroke="#1896e0" stroke-width="0.25"/>
<path d="M 318.80 162.91 C 320.26 163.18 321.75 163.47 323.11 164.13 C 320.47 164.46 319.33 166.64 318.77 168.98 C 321.10 169.69 323.45 170.36 325.82 170.98 C 326.10 169.18 326.38 167.37 326.67 165.56 C 327.77 165.98 328.87 166.40 329.97 166.83 C 326.72 166.45 326.89 169.76 326.37 172.05 C 321.66 171.40 317.10 169.71 312.99 167.33 C 314.13 167.76 315.27 168.17 316.41 168.58 C 317.24 166.70 318.03 164.81 318.80 162.91 Z" fill="#cbc3a1" opacity="1.00" stroke="#cbc3a1" stroke-width="0.25"/>
<path d="M 96.50 163.88 C 97.19 165.44 97.58 167.11 97.95 168.77 C 96.90 168.50 95.84 168.23 94.79 167.96 C 94.89 168.43 95.08 169.37 95.18 169.83 C 94.84 169.33 94.16 168.32 93.82 167.82 C 93.88 167.39 94.01 166.55 94.08 166.13 C 94.89 165.38 95.69 164.63 96.50 163.88 Z" fill="#829b4a" opacity="1.00" stroke="#829b4a" stroke-width="0.25"/>
<path d="M 286.75 163.97 C 289.49 164.27 292.40 164.62 294.29 166.86 C 294.14 167.40 293.85 168.47 293.70 169.01 C 291.77 172.33 287.64 168.98 285.02 168.32 C 285.59 166.86 286.18 165.42 286.75 163.97 Z" fill="#f8c764" opacity="1.00" stroke="#f8c764" stroke-width="0.25"/>
<path d="M 318.77 168.98 C 319.33 166.64 320.47 164.46 323.11 164.13 C 324.30 164.60 325.48 165.07 326.67 165.56 C 326.38 167.37 326.10 169.18 325.82 170.98 C 323.45 170.36 321.10 169.69 318.77 168.98 Z" fill="#fdbe4c" opacity="1.00" stroke="#fdbe4c" stroke-width="0.25"/>
<path d="M 356.49 164.47 C 358.19 164.89 359.88 165.40 361.52 166.04 C 360.96 167.77 360.40 169.51 359.85 171.25 C 357.71 170.74 355.59 170.16 353.49 169.53 C 354.63 167.93 355.58 166.21 356.49 164.47 Z" fill="#f6387e" opacity="1.00" stroke="#f6387e" stroke-width="0.25"/>
<path d="M 85.15 171.05 C 86.71 167.61 90.59 166.38 94.08 166.13 C 94.01 166.55 93.88 167.39 93.82 167.82 C 91.01 168.01 88.03 169.06 87.01 171.94 C 87.22 174.47 89.94 175.23 91.83 176.25 C 101.44 180.56 112.25 179.60 122.46 178.90 C 111.74 182.60 99.57 181.49 89.45 176.51 C 87.43 175.40 84.53 173.82 85.15 171.05 Z" fill="#370e19" opacity="1.00" stroke="#370e19" stroke-width="0.25"/>
<path d="M 294.48 166.15 C 299.23 167.32 304.10 168.41 308.48 170.64 C 308.27 171.23 307.84 172.40 307.62 172.99 C 307.50 173.68 307.26 175.05 307.13 175.73 C 302.46 174.22 297.77 172.81 293.15 171.15 C 293.29 170.61 293.56 169.54 293.70 169.01 C 293.85 168.47 294.14 167.40 294.29 166.86 L 294.48 166.15 Z" fill="#5e5d76" opacity="1.00" stroke="#5e5d76" stroke-width="0.25"/>
<path d="M 361.52 166.04 C 362.54 166.16 363.56 166.27 364.59 166.38 L 364.39 166.66 C 363.15 168.28 362.20 170.09 361.38 171.95 C 361.00 171.77 360.23 171.43 359.85 171.25 C 360.40 169.51 360.96 167.77 361.52 166.04 Z" fill="#9e9ccd" opacity="1.00" stroke="#9e9ccd" stroke-width="0.25"/>
<path d="M 326.37 172.05 C 326.89 169.76 326.72 166.45 329.97 166.83 C 333.67 167.78 337.00 169.89 340.79 170.44 C 338.20 170.62 337.34 173.18 336.24 175.09 C 332.87 174.34 329.64 173.13 326.37 172.05 Z" fill="#5d6b6c" opacity="1.00" stroke="#5d6b6c" stroke-width="0.25"/>
<path d="M 361.38 171.95 C 362.20 170.09 363.15 168.28 364.39 166.66 C 365.73 167.07 367.07 167.47 368.42 167.87 L 368.26 168.65 C 367.89 170.33 367.58 172.03 367.28 173.74 C 365.31 173.14 363.34 172.55 361.38 171.95 Z" fill="#269fcd" opacity="1.00" stroke="#269fcd" stroke-width="0.25"/>
<path d="M 368.26 168.65 C 371.65 168.02 374.88 169.95 378.02 171.00 C 377.84 172.48 377.66 173.98 377.49 175.47 C 376.38 175.70 375.28 175.94 374.18 176.18 C 371.86 175.41 369.56 174.59 367.28 173.74 C 367.58 172.03 367.89 170.33 368.26 168.65 Z" fill="#f06059" opacity="1.00" stroke="#f06059" stroke-width="0.25"/>
<path d="M 336.24 175.09 C 337.34 173.18 338.20 170.62 340.79 170.44 C 342.29 170.85 343.75 171.43 345.21 171.97 C 344.56 173.77 343.92 175.58 343.20 177.35 C 342.62 177.31 341.46 177.23 340.88 177.19 C 339.25 176.69 337.75 175.86 336.24 175.09 Z" fill="#11add1" opacity="1.00" stroke="#11add1" stroke-width="0.25"/>
<path d="M 378.02 171.00 C 380.27 171.62 382.60 172.07 384.74 173.04 C 385.60 174.88 384.34 177.29 383.18 178.76 C 380.08 178.28 377.18 177.03 374.18 176.18 C 375.28 175.94 376.38 175.70 377.49 175.47 C 377.66 173.98 377.84 172.48 378.02 171.00 Z" fill="#836672" opacity="1.00" stroke="#836672" stroke-width="0.25"/>
<path d="M 307.62 172.99 C 308.18 172.63 309.29 171.92 309.84 171.56 C 316.00 173.50 322.04 175.78 328.04 178.15 C 327.15 178.13 325.36 178.08 324.46 178.06 C 324.38 179.43 324.30 180.80 324.22 182.17 L 324.19 182.63 C 319.34 179.21 313.31 178.84 307.94 176.76 L 307.13 175.73 C 307.26 175.05 307.50 173.68 307.62 172.99 Z" fill="#f4bf60" opacity="1.00" stroke="#f4bf60" stroke-width="0.25"/>
<path d="M 345.21 171.97 C 346.52 172.20 347.82 172.46 349.13 172.73 L 348.06 173.17 C 347.66 173.22 346.85 173.32 346.45 173.37 C 345.80 175.16 345.16 176.95 344.52 178.74 C 343.31 178.22 342.09 177.71 340.88 177.19 C 341.46 177.23 342.62 177.31 343.20 177.35 C 343.92 175.58 344.56 173.77 345.21 171.97 Z" fill="#8bdedc" opacity="1.00" stroke="#8bdedc" stroke-width="0.25"/>
<path d="M 346.45 173.37 C 346.85 173.32 347.66 173.22 348.06 173.17 C 348.98 173.28 350.81 173.49 351.72 173.59 C 350.42 175.73 350.28 179.65 346.97 179.53 C 346.36 179.33 345.13 178.94 344.52 178.74 C 345.16 176.95 345.80 175.16 346.45 173.37 Z" fill="#26c079" opacity="1.00" stroke="#26c079" stroke-width="0.25"/>
<path d="M 351.72 173.59 C 351.80 173.84 351.95 174.35 352.02 174.61 C 351.89 176.44 351.64 178.27 351.37 180.09 C 353.02 180.63 354.66 181.17 356.32 181.71 C 356.76 179.80 357.19 177.90 357.61 175.98 C 359.60 176.55 361.60 177.12 363.61 177.66 C 361.51 178.01 358.35 177.28 357.49 179.92 C 357.81 181.08 358.18 182.23 358.59 183.38 C 354.69 182.18 350.77 181.02 346.97 179.53 C 350.28 179.65 350.42 175.73 351.72 173.59 Z" fill="#80d699" opacity="1.00" stroke="#80d699" stroke-width="0.25"/>
<path d="M 119.02 181.88 C 125.01 181.08 130.30 178.01 135.09 174.50 C 135.29 178.33 135.72 182.20 135.20 186.03 C 134.64 189.54 131.65 191.82 129.14 194.02 C 129.63 193.98 130.61 193.91 131.10 193.87 C 127.98 196.21 124.17 197.20 120.36 197.62 C 113.75 196.97 107.06 197.98 100.50 196.74 C 95.30 195.92 89.63 195.02 85.60 191.33 C 82.29 186.85 83.82 180.83 83.85 175.68 C 87.64 177.38 91.23 179.59 95.26 180.70 C 102.97 182.85 111.13 182.83 119.02 181.88 Z" fill="#ea584b" opacity="1.00" stroke="#ea584b" stroke-width="0.25"/>
<path d="M 259.95 174.83 C 260.21 175.38 260.73 176.49 260.98 177.04 C 261.70 179.57 264.41 180.43 266.37 181.79 C 269.37 183.45 271.83 186.04 275.05 187.31 C 278.85 187.49 282.60 186.65 286.36 186.19 L 287.23 186.03 C 285.34 189.11 281.14 188.31 278.04 188.91 C 273.10 190.20 269.90 185.62 265.93 183.65 C 263.84 182.16 261.50 180.90 259.83 178.90 C 259.82 177.54 259.86 176.19 259.95 174.83 Z" fill="#8a251f" opacity="1.00" stroke="#8a251f" stroke-width="0.25"/>
<path d="M 352.02 174.61 C 353.90 175.00 355.75 175.48 357.61 175.98 C 357.19 177.90 356.76 179.80 356.32 181.71 C 354.66 181.17 353.02 180.63 351.37 180.09 C 351.64 178.27 351.89 176.44 352.02 174.61 Z" fill="#2bc456" opacity="1.00" stroke="#2bc456" stroke-width="0.25"/>
<path d="M 261.52 175.11 C 270.13 177.21 278.65 179.90 286.80 183.39 C 286.65 184.32 286.50 185.25 286.36 186.19 C 282.60 186.65 278.85 187.49 275.05 187.31 C 271.83 186.04 269.37 183.45 266.37 181.79 C 264.41 180.43 261.70 179.57 260.98 177.04 C 261.12 176.56 261.39 175.59 261.52 175.11 Z" fill="#e8544e" opacity="1.00" stroke="#e8544e" stroke-width="0.25"/>
<path d="M 324.46 178.06 C 325.36 178.08 327.15 178.13 328.04 178.15 L 328.39 178.35 C 329.50 179.27 330.70 180.09 331.81 181.03 C 331.07 181.99 330.60 183.93 329.05 183.73 C 327.37 183.47 325.80 182.76 324.22 182.17 C 324.30 180.80 324.38 179.43 324.46 178.06 Z" fill="#fc337c" opacity="1.00" stroke="#fc337c" stroke-width="0.25"/>
<path d="M 328.39 178.35 C 328.36 178.23 328.32 177.99 328.29 177.87 C 332.39 180.31 337.27 180.73 341.63 182.55 L 341.62 183.21 C 341.58 184.95 341.56 186.69 341.55 188.44 C 335.63 186.91 329.97 184.59 324.19 182.63 L 324.22 182.17 C 325.80 182.76 327.37 183.47 329.05 183.73 C 330.60 183.93 331.07 181.99 331.81 181.03 C 330.70 180.09 329.50 179.27 328.39 178.35 Z" fill="#4e4f9a" opacity="1.00" stroke="#4e4f9a" stroke-width="0.25"/>
<path d="M 357.49 179.92 C 358.35 177.28 361.51 178.01 363.61 177.66 C 363.53 179.72 363.15 181.76 362.51 183.73 C 361.20 183.60 359.89 183.48 358.59 183.38 C 358.18 182.23 357.81 181.08 357.49 179.92 Z" fill="#24cc54" opacity="1.00" stroke="#24cc54" stroke-width="0.25"/>
<path d="M 341.62 183.21 C 344.10 183.19 346.46 183.92 348.66 185.04 C 348.24 186.84 347.79 188.64 347.43 190.46 C 345.47 190.04 343.51 189.62 341.55 189.21 L 341.55 188.44 C 341.56 186.69 341.58 184.95 341.62 183.21 Z" fill="#20c4d2" opacity="1.00" stroke="#20c4d2" stroke-width="0.25"/>
<path d="M 265.93 183.65 C 269.90 185.62 273.10 190.20 278.04 188.91 C 281.14 188.31 285.34 189.11 287.23 186.03 C 287.55 185.59 288.20 184.70 288.53 184.26 C 311.91 191.89 334.93 200.59 358.23 208.48 C 358.75 209.34 359.26 210.21 359.78 211.08 C 359.42 211.44 358.70 212.18 358.34 212.55 C 360.56 213.60 363.09 214.56 364.08 217.05 C 360.08 215.53 356.22 212.89 351.93 212.59 C 349.95 216.63 350.76 221.51 348.25 225.32 C 348.03 227.44 347.89 229.58 347.76 231.71 C 346.64 231.92 345.51 232.13 344.40 232.35 C 344.12 233.50 343.85 234.66 343.58 235.82 C 341.16 235.94 338.75 236.07 336.34 236.19 C 336.10 237.31 335.86 238.43 335.63 239.56 C 331.78 241.89 327.47 243.04 322.97 242.66 C 319.07 242.76 315.60 240.64 311.93 239.64 C 298.03 234.50 283.81 230.29 269.96 225.04 C 270.54 224.96 271.69 224.80 272.27 224.72 C 266.89 222.15 261.22 220.33 255.62 218.33 C 253.60 217.54 251.42 217.45 249.28 217.48 C 241.05 215.50 233.15 212.12 225.08 209.50 C 221.76 208.26 218.23 207.52 215.17 205.65 C 218.07 204.73 220.99 205.36 223.68 206.60 C 223.58 205.52 223.46 204.44 223.43 203.36 C 226.09 202.92 228.80 202.88 231.49 202.77 C 231.73 202.12 232.20 200.81 232.43 200.16 C 234.88 200.06 237.33 199.96 239.79 199.86 C 239.92 197.26 240.07 194.67 240.21 192.07 C 242.73 192.05 245.24 192.06 247.76 192.08 C 247.89 194.65 248.01 197.23 248.15 199.80 C 252.96 199.79 257.90 200.65 262.64 199.64 C 264.91 196.62 268.69 196.85 272.09 196.81 C 272.04 194.54 271.47 192.37 270.16 190.50 C 271.11 190.54 272.06 190.58 273.02 190.62 C 270.42 188.55 267.92 186.34 265.93 183.65 Z" fill="#eb594b" opacity="1.00" stroke="#eb594b" stroke-width="0.25"/>
<path d="M 348.66 185.04 C 352.41 185.64 356.03 186.95 359.29 188.92 C 360.13 190.39 359.55 192.32 358.50 193.54 C 356.50 194.13 354.46 193.19 352.53 192.76 C 350.80 192.11 348.62 192.05 347.43 190.46 C 347.79 188.64 348.24 186.84 348.66 185.04 Z" fill="#f9bc5b" opacity="1.00" stroke="#f9bc5b" stroke-width="0.25"/>
<path d="M 360.32 196.10 C 361.94 195.61 362.45 196.18 361.84 197.83 C 360.22 198.31 359.71 197.73 360.32 196.10 Z" fill="#aca4b1" opacity="1.00" stroke="#aca4b1" stroke-width="0.25"/>
<path d="M 363.17 196.48 C 364.53 195.29 366.54 197.55 364.89 198.59 C 363.52 199.74 361.48 197.53 363.17 196.48 Z" fill="#131038" opacity="1.00" stroke="#131038" stroke-width="0.25"/>
<path d="M 88.40 197.36 C 101.99 203.41 117.07 203.58 131.66 203.46 C 131.76 207.08 132.10 210.94 130.22 214.23 C 128.17 218.42 123.25 219.91 118.95 220.36 C 111.67 221.05 104.21 221.16 97.06 219.47 C 94.65 218.80 92.07 217.69 90.67 215.52 C 88.11 209.84 88.39 203.45 88.40 197.36 Z" fill="#eb584c" opacity="1.00" stroke="#eb584c" stroke-width="0.25"/>
<path d="M 367.21 197.25 C 369.00 197.16 368.49 199.92 366.95 199.79 C 365.14 199.87 365.65 197.13 367.21 197.25 Z" fill="#1b1840" opacity="1.00" stroke="#1b1840" stroke-width="0.25"/>
<path d="M 369.44 198.45 C 369.95 198.51 370.97 198.61 371.48 198.66 C 371.51 199.14 371.58 200.09 371.61 200.57 C 371.09 200.54 370.06 200.48 369.54 200.44 C 369.51 199.95 369.46 198.95 369.44 198.45 Z" fill="#0d113b" opacity="1.00" stroke="#0d113b" stroke-width="0.25"/>
<path d="M 133.64 200.85 C 136.79 202.07 139.29 204.41 142.15 206.13 C 144.82 207.88 148.39 206.54 151.11 207.90 C 151.95 212.75 149.78 219.61 144.53 221.01 C 144.52 218.64 144.67 216.22 144.00 213.92 C 141.84 209.42 137.93 206.23 133.66 203.84 C 133.66 203.09 133.65 201.60 133.64 200.85 Z" fill="#e65a50" opacity="1.00" stroke="#e65a50" stroke-width="0.25"/>
<path d="M 145.31 204.42 C 146.89 202.91 149.01 204.54 150.19 205.79 C 148.72 205.75 144.65 207.00 145.31 204.42 Z" fill="#cb9699" opacity="1.00" stroke="#cb9699" stroke-width="0.25"/>
<path d="M 370.17 206.87 C 370.72 206.95 371.82 207.11 372.37 207.19 C 372.61 207.64 373.08 208.53 373.31 208.97 C 374.44 209.01 375.27 208.40 375.78 207.13 C 376.04 208.08 376.29 209.03 376.64 209.96 C 376.43 210.52 376.01 211.63 375.81 212.19 L 375.20 211.79 C 373.69 210.79 372.01 210.11 370.45 209.24 C 370.38 208.65 370.24 207.47 370.17 206.87 Z" fill="#836672" opacity="1.00" stroke="#836672" stroke-width="0.25"/>
<path d="M 134.71 209.38 C 134.95 209.50 135.44 209.75 135.68 209.87 C 137.69 212.32 140.53 214.75 140.49 218.18 C 137.60 222.48 131.80 223.05 127.13 224.05 C 118.52 224.98 109.73 225.12 101.20 223.39 L 101.23 223.39 C 110.02 223.98 119.51 224.83 127.63 220.68 C 130.97 219.13 132.38 215.45 133.12 212.09 C 133.51 211.41 134.31 210.06 134.71 209.38 Z" fill="#f05e52" opacity="1.00" stroke="#f05e52" stroke-width="0.25"/>
<path d="M 144.00 213.92 C 144.67 216.22 144.52 218.64 144.53 221.01 L 144.53 221.37 C 142.29 224.66 139.93 228.32 136.10 229.90 C 123.54 234.10 110.21 235.04 97.06 235.31 C 93.43 236.52 90.62 239.59 86.93 240.81 C 89.31 237.82 93.15 236.55 96.08 234.18 C 108.44 233.95 120.94 233.13 132.89 229.75 C 139.77 228.09 144.63 220.93 144.00 213.92 Z" fill="#370e19" opacity="1.00" stroke="#370e19" stroke-width="0.25"/>
<path d="M 249.28 217.48 C 251.42 217.45 253.60 217.54 255.62 218.33 C 261.22 220.33 266.89 222.15 272.27 224.72 C 271.69 224.80 270.54 224.96 269.96 225.04 C 263.06 222.57 255.84 220.75 249.28 217.48 Z" fill="#ca6061" opacity="1.00" stroke="#ca6061" stroke-width="0.25"/>
<path d="M 471.71 229.41 C 472.52 229.48 474.14 229.64 474.94 229.72 C 480.34 245.15 485.88 260.54 491.25 275.98 C 491.76 278.04 493.16 280.50 491.49 282.41 C 486.79 289.62 481.35 296.32 476.23 303.23 C 471.73 308.93 467.66 315.03 463.05 320.61 C 462.57 320.67 461.59 320.79 461.10 320.84 C 456.09 324.94 450.62 328.67 444.21 330.08 C 444.53 329.58 444.86 329.08 445.19 328.58 C 443.46 325.38 444.29 321.70 444.09 318.23 C 448.36 315.90 451.40 311.65 452.38 306.90 C 453.88 300.07 455.81 293.34 457.23 286.50 C 462.02 267.46 466.71 248.38 471.71 229.41 Z" fill="#0f103c" opacity="1.00" stroke="#0f103c" stroke-width="0.25"/>
<path d="M 40.82 232.72 C 42.63 230.00 46.14 231.71 48.55 232.47 C 63.41 238.60 78.25 244.80 93.05 251.07 C 95.60 253.02 98.75 252.99 101.82 253.01 C 98.81 253.05 95.56 253.75 92.80 252.21 C 77.48 245.78 62.18 239.31 46.74 233.17 C 46.97 238.11 45.09 242.78 43.21 247.24 C 42.91 247.47 42.32 247.93 42.02 248.16 C 43.46 243.05 45.40 238.10 46.67 232.94 C 44.73 232.54 42.77 232.57 40.82 232.72 Z" fill="#370e19" opacity="1.00" stroke="#370e19" stroke-width="0.25"/>
<path d="M 167.82 253.82 C 175.87 249.13 184.34 245.10 192.20 240.04 C 191.70 242.09 189.61 242.83 188.02 243.86 C 184.07 246.25 179.94 248.34 175.91 250.59 C 173.35 251.96 170.82 253.66 167.82 253.82 Z" fill="#370e19" opacity="1.00" stroke="#370e19" stroke-width="0.25"/>
<path d="M 190.03 247.45 C 192.29 245.87 194.60 244.37 196.74 242.62 C 203.13 245.78 210.22 247.33 216.43 250.87 C 213.69 252.11 211.11 254.26 208.09 254.52 C 202.14 252.64 196.36 250.21 190.47 248.12 C 190.36 247.95 190.14 247.62 190.03 247.45 Z" fill="#0f1138" opacity="1.00" stroke="#0f1138" stroke-width="0.25"/>
<path d="M 40.85 248.91 C 44.04 250.37 46.76 252.73 50.11 253.90 C 53.41 255.49 57.17 256.24 60.17 258.41 C 53.14 262.32 46.00 266.03 39.05 270.07 C 34.00 272.90 28.67 275.30 24.00 278.75 C 27.73 279.94 31.23 281.79 35.02 282.77 C 38.19 281.74 41.10 280.01 43.56 277.78 C 45.79 275.53 49.27 276.77 52.04 275.94 C 58.38 274.10 63.36 269.59 68.36 265.52 C 70.53 265.64 72.70 265.61 74.86 265.56 C 72.43 266.21 69.35 265.46 67.48 267.48 C 63.62 271.49 58.80 274.49 53.66 276.56 C 50.36 277.99 46.20 276.69 43.47 279.44 C 40.10 281.59 36.08 285.18 31.92 283.06 C 25.82 280.36 19.54 278.10 13.43 275.42 C 13.41 275.21 13.37 274.80 13.35 274.59 C 23.46 268.60 33.69 262.81 43.87 256.94 C 44.88 256.17 46.67 255.59 46.52 254.04 C 44.95 251.96 41.68 251.56 40.85 248.91 Z" fill="#0d0f34" opacity="1.00" stroke="#0d0f34" stroke-width="0.25"/>
<path d="M 181.96 257.35 C 183.40 253.39 188.50 252.66 191.82 250.65 C 196.10 252.53 200.76 253.68 204.65 256.37 C 204.63 256.55 204.59 256.91 204.58 257.08 C 201.42 258.64 198.46 260.73 195.06 261.74 C 190.48 261.06 186.42 258.55 181.96 257.35 Z" fill="#0f0e3a" opacity="1.00" stroke="#0f0e3a" stroke-width="0.25"/>
<path d="M 213.03 256.11 C 215.31 253.36 219.51 251.17 222.95 253.13 C 226.61 254.67 230.45 255.84 233.87 257.91 C 232.20 259.21 230.41 261.08 228.05 260.52 C 222.90 259.61 218.04 257.55 213.03 256.11 Z" fill="#11103c" opacity="1.00" stroke="#11103c" stroke-width="0.25"/>
<path d="M 46.61 256.70 C 46.83 256.05 47.26 254.77 47.47 254.12 C 50.94 255.57 54.58 256.65 57.82 258.60 C 46.09 264.77 34.41 271.07 23.00 277.82 C 20.35 277.16 17.82 276.09 15.26 275.15 C 16.59 274.08 18.00 273.12 19.50 272.31 C 28.62 267.25 37.55 261.87 46.61 256.70 Z" fill="#f5e7ea" opacity="1.00" stroke="#f5e7ea" stroke-width="0.25"/>
<path d="M 162.68 262.58 C 165.05 260.11 168.21 258.47 169.96 255.38 C 171.90 255.26 173.83 255.68 175.62 256.45 C 181.41 258.85 187.57 260.35 193.07 263.41 C 191.98 265.94 189.27 266.94 187.03 268.18 C 185.20 268.94 183.22 270.35 181.20 269.37 C 175.04 267.06 168.88 264.78 162.68 262.58 Z" fill="#0f0f3c" opacity="1.00" stroke="#0f0f3c" stroke-width="0.25"/>
<path d="M 153.07 263.17 C 156.65 261.56 159.81 258.77 163.84 258.41 C 155.05 263.23 146.35 268.40 136.94 271.92 C 141.76 268.12 147.76 266.18 153.07 263.17 Z" fill="#370e19" opacity="1.00" stroke="#370e19" stroke-width="0.25"/>
<path d="M 204.34 261.47 C 206.88 260.23 209.51 257.70 212.53 258.75 C 218.10 260.57 223.46 263.00 229.07 264.75 C 226.71 267.00 223.31 269.16 219.95 267.97 C 214.57 266.45 209.27 264.62 204.06 262.62 C 204.13 262.33 204.27 261.75 204.34 261.47 Z" fill="#0d0f39" opacity="1.00" stroke="#0d0f39" stroke-width="0.25"/>
<path d="M 230.29 260.99 C 232.84 260.34 235.32 259.18 237.99 259.08 C 241.07 260.27 244.45 260.91 247.29 262.64 C 248.15 264.52 245.57 265.65 244.09 265.91 C 239.70 265.72 235.42 264.35 231.44 262.54 C 231.16 262.15 230.58 261.38 230.29 260.99 Z" fill="#0d0f34" opacity="1.00" stroke="#0d0f34" stroke-width="0.25"/>
<path d="M 146.06 269.89 C 151.29 269.27 155.65 266.09 159.99 263.39 C 168.40 266.13 176.52 269.68 184.96 272.34 C 187.02 272.94 188.97 273.84 190.84 274.90 C 187.97 278.13 184.08 280.15 179.98 281.34 C 171.91 278.61 164.00 275.37 155.88 272.78 C 151.62 271.47 146.93 271.07 142.67 272.60 C 150.55 271.96 157.77 275.47 164.97 278.07 C 170.33 280.08 175.90 281.79 180.70 284.99 C 176.70 287.02 173.28 290.37 168.96 291.62 C 157.70 287.20 146.17 283.29 135.20 278.16 C 137.00 275.35 140.26 274.49 143.14 273.27 C 142.14 273.26 140.16 273.25 139.17 273.24 C 140.54 270.90 143.66 270.57 146.06 269.89 Z" fill="#0e0e3a" opacity="1.00" stroke="#0e0e3a" stroke-width="0.25"/>
<path d="M 196.08 266.06 C 197.22 265.34 198.54 263.95 199.99 264.90 C 205.91 267.23 212.00 269.15 217.75 271.91 C 214.28 273.63 211.07 275.77 207.79 277.81 C 205.10 279.85 201.44 278.85 198.81 277.23 C 195.12 275.01 191.36 272.89 187.29 271.45 C 189.91 269.14 193.39 268.25 196.08 266.06 Z" fill="#0f113e" opacity="1.00" stroke="#0f113e" stroke-width="0.25"/>
<path d="M 244.33 268.15 C 246.89 267.00 249.27 265.36 251.96 264.53 C 256.15 266.03 260.39 267.38 264.61 268.82 C 264.70 269.07 264.89 269.58 264.98 269.83 C 262.36 271.20 259.47 271.94 256.88 273.37 C 255.06 272.83 253.27 272.25 251.50 271.59 C 249.49 273.99 246.52 275.23 243.91 276.84 C 242.24 278.01 240.17 276.93 238.45 276.50 C 233.59 274.72 228.62 273.30 223.74 271.63 C 225.72 268.92 229.29 268.04 232.14 266.47 C 237.99 267.15 243.08 270.59 248.58 272.51 C 249.35 272.05 250.12 271.59 250.89 271.12 C 248.63 270.30 246.44 269.30 244.33 268.15 Z" fill="#0f0e3b" opacity="1.00" stroke="#0f0e3b" stroke-width="0.25"/>
<path d="M 259.00 274.86 C 261.85 272.81 265.36 271.84 267.99 269.44 C 272.50 271.61 277.46 272.77 281.82 275.24 C 280.94 277.82 277.11 278.08 275.04 279.65 C 272.13 278.82 269.12 278.55 266.14 278.08 C 263.67 277.23 261.36 275.97 259.00 274.86 Z" fill="#12123c" opacity="1.00" stroke="#12123c" stroke-width="0.25"/>
<path d="M 207.15 280.10 C 210.76 277.83 214.15 274.95 218.10 273.37 C 219.71 274.03 222.98 274.37 222.81 276.63 C 219.51 278.74 215.73 279.89 212.03 281.04 C 210.36 281.77 208.71 280.50 207.15 280.10 Z" fill="#150e3e" opacity="1.00" stroke="#150e3e" stroke-width="0.25"/>
<path d="M 245.12 279.67 C 246.50 276.95 250.10 275.39 252.90 274.16 C 257.23 275.02 261.62 276.73 264.97 279.67 C 261.65 281.53 258.09 284.95 254.01 283.55 C 251.03 282.36 247.59 281.82 245.12 279.67 Z" fill="#11123c" opacity="1.00" stroke="#11123c" stroke-width="0.25"/>
<path d="M 220.05 281.15 C 223.67 280.14 226.57 277.59 230.03 276.24 C 233.62 275.41 236.73 278.07 240.00 279.08 C 236.28 282.66 231.45 284.68 226.99 287.14 C 222.79 285.03 217.75 284.05 214.28 280.88 C 216.20 280.93 218.12 281.27 220.05 281.15 Z" fill="#10103c" opacity="1.00" stroke="#10103c" stroke-width="0.25"/>
<path d="M 277.55 280.22 C 280.29 278.84 283.17 277.82 285.98 276.61 C 289.54 278.37 293.90 278.71 296.98 281.24 C 295.41 283.81 291.39 283.77 288.94 285.45 C 285.12 283.97 281.26 282.45 277.12 282.20 C 277.23 281.70 277.44 280.71 277.55 280.22 Z" fill="#0f1038" opacity="1.00" stroke="#0f1038" stroke-width="0.25"/>
<path d="M 193.90 277.73 C 197.51 276.81 200.87 278.91 204.31 279.66 C 204.31 280.28 204.32 281.53 204.32 282.15 C 201.99 284.12 199.26 285.57 196.98 287.63 C 192.79 286.43 188.23 285.13 185.16 281.86 C 187.96 280.28 190.85 278.79 193.90 277.73 Z" fill="#121139" opacity="1.00" stroke="#121139" stroke-width="0.25"/>
<path d="M 233.66 285.90 C 234.89 282.76 238.32 281.52 240.96 279.83 C 246.00 282.43 251.50 284.02 256.48 286.72 C 252.12 287.91 247.70 289.41 243.14 289.31 C 239.82 288.71 236.45 287.87 233.66 285.90 Z" fill="#12113d" opacity="1.00" stroke="#12113d" stroke-width="0.25"/>
<path d="M 266.55 281.81 C 269.57 279.67 273.28 280.80 276.48 281.80 C 276.52 282.38 276.60 283.52 276.64 284.09 C 274.08 285.75 271.48 287.37 268.78 288.80 C 265.78 288.25 262.96 286.89 260.19 285.64 C 262.07 284.01 264.41 283.05 266.55 281.81 Z" fill="#0f0e37" opacity="1.00" stroke="#0f0e37" stroke-width="0.25"/>
<path d="M 294.79 286.90 C 297.02 284.63 299.96 281.14 303.53 282.63 C 309.70 285.01 315.91 287.33 322.09 289.71 C 319.64 292.97 314.71 293.69 311.01 292.38 C 306.20 291.27 301.88 288.27 296.96 287.82 L 296.12 288.05 L 297.20 289.67 C 292.75 291.92 288.38 295.79 283.02 294.55 C 279.74 293.47 276.49 292.27 273.02 291.97 C 271.79 292.10 271.68 290.61 271.11 289.89 C 274.70 288.69 277.94 286.67 280.96 284.43 C 285.12 285.68 291.21 289.78 294.48 285.02 C 294.57 285.64 294.67 286.27 294.79 286.90 Z" fill="#101039" opacity="1.00" stroke="#101039" stroke-width="0.25"/>
<path d="M 199.95 288.12 C 202.58 285.53 206.67 284.63 209.92 282.81 C 215.32 282.58 220.17 285.81 224.95 287.99 C 222.15 290.27 219.27 292.72 215.81 293.87 C 210.41 292.35 205.10 290.35 199.95 288.12 Z" fill="#101038" opacity="1.00" stroke="#101038" stroke-width="0.25"/>
<path d="M 184.44 286.43 C 186.34 285.64 188.32 286.61 190.15 287.18 C 194.02 288.45 197.76 290.11 201.54 291.64 C 197.11 293.79 193.00 297.40 187.98 297.84 C 182.88 296.46 178.03 294.24 172.97 292.71 C 176.47 290.09 180.40 288.09 184.44 286.43 Z" fill="#0e0f3a" opacity="1.00" stroke="#0e0f3a" stroke-width="0.25"/>
<path d="M 251.18 293.15 C 252.27 289.46 256.56 288.37 259.89 287.75 C 263.38 288.60 266.80 289.98 269.79 291.99 C 270.09 294.80 266.19 295.87 264.04 296.43 C 259.65 295.82 255.48 294.18 251.18 293.15 Z" fill="#100b35" opacity="1.00" stroke="#100b35" stroke-width="0.25"/>
<path d="M 218.81 295.14 C 223.41 292.02 228.43 288.51 234.24 288.64 C 234.36 289.27 234.61 290.52 234.73 291.15 C 235.54 291.31 237.14 291.64 237.95 291.81 C 235.92 295.49 231.80 297.05 228.07 298.40 C 224.86 297.71 221.68 296.77 218.81 295.14 Z" fill="#0f113d" opacity="1.00" stroke="#0f113d" stroke-width="0.25"/>
<path d="M 288.33 297.53 C 291.77 295.29 294.91 292.35 298.91 291.15 C 303.14 291.56 306.80 293.97 310.74 295.36 C 310.81 296.92 309.13 297.59 308.13 298.45 C 305.33 300.08 302.16 301.11 298.98 301.66 C 295.19 301.18 291.47 299.72 288.33 297.53 Z" fill="#10103d" opacity="1.00" stroke="#10103d" stroke-width="0.25"/>
<path d="M 324.72 291.90 C 326.14 291.06 327.68 292.11 329.05 292.52 C 332.83 294.09 336.85 295.00 340.58 296.68 C 341.16 297.92 339.64 298.28 338.91 298.87 C 336.88 300.10 334.39 301.03 332.04 300.15 C 327.74 298.86 323.40 297.57 319.34 295.64 C 319.97 293.54 323.07 293.19 324.72 291.90 Z" fill="#0e0e3b" opacity="1.00" stroke="#0e0e3b" stroke-width="0.25"/>
<path d="M 231.72 299.81 C 235.08 296.74 238.99 294.22 243.12 292.35 C 247.61 293.20 251.69 295.57 256.12 296.72 C 252.37 299.33 248.28 301.51 245.03 304.78 C 240.33 303.90 235.98 301.90 231.72 299.81 Z" fill="#0f0f3c" opacity="1.00" stroke="#0f0f3c" stroke-width="0.25"/>
<path d="M 194.43 298.80 C 198.15 296.55 201.95 294.42 205.84 292.49 C 209.31 293.32 212.60 294.68 215.95 295.88 C 233.55 302.77 251.50 308.78 268.98 315.97 C 271.48 316.95 274.30 317.67 275.89 320.03 C 272.44 322.88 268.31 324.73 264.17 326.35 C 240.82 317.84 217.64 308.87 194.29 300.35 C 194.32 299.96 194.40 299.19 194.43 298.80 Z" fill="#0e0e39" opacity="1.00" stroke="#0e0e39" stroke-width="0.25"/>
<path d="M 267.41 299.00 C 269.72 297.17 272.15 295.22 275.00 294.31 C 277.85 294.12 280.47 295.69 283.12 296.55 C 279.97 299.89 275.38 301.55 271.02 302.69 C 270.01 301.41 267.38 300.66 267.41 299.00 Z" fill="#140f3b" opacity="1.00" stroke="#140f3b" stroke-width="0.25"/>
<path d="M 240.30 297.22 C 241.31 296.36 243.54 296.62 243.83 298.10 C 243.52 300.17 239.32 299.16 240.30 297.22 Z" fill="#cdbbd7" opacity="1.00" stroke="#cdbbd7" stroke-width="0.25"/>
<path d="M 304.63 303.40 C 307.79 301.19 310.75 298.73 313.81 296.39 C 320.68 298.79 327.92 300.42 334.40 303.78 C 335.58 304.67 333.66 305.43 333.13 306.01 C 328.52 310.29 321.80 309.39 316.02 309.85 C 312.18 309.87 309.81 313.31 307.07 315.48 C 302.82 313.71 298.11 312.89 294.27 310.28 C 296.25 308.64 298.16 306.86 300.47 305.68 C 302.52 304.70 304.82 305.47 306.85 306.10 C 312.39 307.90 318.22 308.99 324.07 308.57 L 323.20 307.16 C 316.95 306.34 310.39 306.40 304.63 303.40 Z" fill="#0f0f3c" opacity="1.00" stroke="#0f0f3c" stroke-width="0.25"/>
<path d="M 338.22 302.69 C 339.56 300.52 342.11 299.36 343.88 297.55 C 348.09 299.32 352.35 300.96 356.49 302.87 C 356.56 303.05 356.69 303.40 356.75 303.57 C 355.01 304.75 353.07 305.60 351.18 306.50 C 346.88 305.15 342.48 304.11 338.22 302.69 Z" fill="#0d0a3d" opacity="1.00" stroke="#0d0a3d" stroke-width="0.25"/>
<path d="M 277.19 303.32 C 280.39 301.27 283.99 298.98 287.95 299.31 C 291.10 300.13 294.00 301.66 296.89 303.13 C 294.46 305.04 292.01 306.97 289.26 308.41 C 285.27 307.17 281.27 305.90 277.47 304.19 C 277.40 303.97 277.26 303.54 277.19 303.32 Z" fill="#100e38" opacity="1.00" stroke="#100e38" stroke-width="0.25"/>
<path d="M 245.77 305.69 C 249.95 303.86 253.72 301.16 258.06 299.70 C 261.31 298.53 264.16 301.25 267.06 302.30 C 264.59 306.09 259.81 307.17 256.13 309.42 C 252.61 308.36 249.08 307.30 245.77 305.69 Z" fill="#11133f" opacity="1.00" stroke="#11133f" stroke-width="0.25"/>
<path d="M 355.36 307.72 C 356.77 306.33 357.95 304.53 359.90 303.87 C 365.87 305.44 371.68 307.73 377.26 310.37 C 374.89 312.55 371.37 314.35 368.19 312.90 C 363.82 311.40 359.52 309.70 355.36 307.72 Z" fill="#130e3c" opacity="1.00" stroke="#130e3c" stroke-width="0.25"/>
<path d="M 259.00 310.21 C 262.51 308.01 266.30 306.32 269.92 304.31 C 273.79 305.20 278.21 305.53 281.33 308.21 C 277.26 309.49 273.88 312.22 269.91 313.69 C 266.09 313.40 262.56 311.54 259.00 310.21 Z" fill="#150f3b" opacity="1.00" stroke="#150f3b" stroke-width="0.25"/>
<path d="M 333.01 310.54 C 335.84 308.93 338.64 307.11 341.83 306.31 C 344.29 305.63 346.68 306.78 348.93 307.64 C 353.29 309.34 357.54 311.30 361.58 313.66 C 358.50 315.00 355.51 317.64 351.92 316.60 C 345.57 314.74 338.99 313.49 333.01 310.54 Z" fill="#11113a" opacity="1.00" stroke="#11113a" stroke-width="0.25"/>
<path d="M 269.39 309.13 C 270.36 308.02 272.72 308.47 273.08 309.96 C 272.67 311.73 268.67 311.04 269.39 309.13 Z" fill="#d7dcf5" opacity="1.00" stroke="#d7dcf5" stroke-width="0.25"/>
<path d="M 281.57 307.88 C 289.35 310.21 296.54 313.88 304.05 316.90 C 301.41 319.48 298.11 321.27 294.96 323.14 C 291.88 323.16 289.10 321.41 286.09 320.89 C 287.10 317.37 291.40 316.66 294.09 314.77 C 292.93 313.65 291.60 312.76 290.12 312.15 C 287.41 315.83 282.32 317.93 277.96 315.97 C 276.49 314.99 272.80 315.55 273.23 313.13 C 275.71 310.98 280.17 311.02 281.57 307.88 Z" fill="#10113c" opacity="1.00" stroke="#10113c" stroke-width="0.25"/>
<path d="M 309.95 316.45 C 311.63 314.61 313.01 311.46 315.96 311.87 C 319.40 312.08 322.84 311.89 326.27 311.58 C 323.54 313.91 320.25 315.51 317.00 316.97 C 314.71 318.24 312.25 316.88 309.95 316.45 Z" fill="#17123e" opacity="1.00" stroke="#17123e" stroke-width="0.25"/>
<path d="M 326.45 311.19 C 331.71 311.17 336.03 314.41 340.90 315.86 C 343.82 316.76 346.81 317.45 349.63 318.64 C 349.63 318.86 349.62 319.30 349.62 319.51 C 345.85 322.33 341.56 324.98 336.96 326.03 C 333.77 324.81 330.76 322.92 327.21 323.06 C 330.24 320.34 334.57 319.34 337.06 315.99 C 332.57 317.29 328.97 321.61 323.99 320.88 C 321.47 320.34 318.47 320.28 316.64 318.22 C 319.85 316.55 323.29 315.32 326.36 313.38 C 326.38 312.83 326.43 311.74 326.45 311.19 Z" fill="#131038" opacity="1.00" stroke="#131038" stroke-width="0.25"/>
<path d="M 374.24 315.09 C 376.78 313.83 379.43 312.83 382.03 311.70 C 387.54 314.10 393.34 315.81 398.72 318.49 C 398.84 321.08 394.92 321.12 393.00 321.30 C 386.45 320.43 380.20 317.87 374.24 315.09 Z" fill="#0d113b" opacity="1.00" stroke="#0d113b" stroke-width="0.25"/>
<path d="M 180.91 317.81 C 185.49 315.83 190.04 313.55 195.05 312.90 L 195.60 313.23 C 201.22 316.39 207.51 318.07 213.44 320.56 C 230.36 327.32 247.59 333.34 264.35 340.51 C 254.13 344.69 245.21 351.40 235.44 356.47 C 234.31 357.31 232.08 357.81 232.59 359.68 C 231.99 359.99 231.41 360.30 230.82 360.62 C 227.73 360.02 225.25 362.28 222.86 363.85 L 224.22 364.17 C 223.89 364.34 223.23 364.68 222.90 364.85 C 220.59 363.93 218.64 365.77 216.67 366.65 C 213.99 368.17 210.87 368.85 207.80 368.68 C 204.21 368.46 200.89 366.69 197.26 366.77 C 195.00 366.11 192.79 365.26 190.62 364.36 C 190.95 364.16 191.61 363.78 191.95 363.58 C 186.13 361.32 180.23 359.28 174.50 356.80 C 170.95 355.35 167.42 353.32 163.44 353.60 C 158.26 352.00 153.33 349.68 148.18 347.96 C 144.55 346.74 141.63 343.92 137.81 343.18 C 138.19 340.74 140.17 339.28 142.27 338.33 C 155.36 331.87 167.38 323.38 180.91 317.81 Z" fill="#cfb5d1" opacity="1.00" stroke="#cfb5d1" stroke-width="0.25"/>
<path d="M 195.60 313.23 C 196.81 313.24 197.98 313.44 199.12 313.83 C 219.13 321.48 239.08 329.28 259.08 336.96 C 261.39 337.93 263.96 338.73 265.52 340.84 C 264.01 342.51 262.34 344.07 260.32 345.09 C 245.86 352.96 232.09 362.13 217.08 368.96 C 213.16 370.88 208.49 371.59 204.24 370.51 C 186.68 364.48 169.54 357.28 152.21 350.63 C 146.85 348.88 141.43 346.74 137.13 343.01 L 137.81 343.18 C 141.63 343.92 144.55 346.74 148.18 347.96 C 153.33 349.68 158.26 352.00 163.44 353.60 C 172.42 357.39 181.55 360.79 190.62 364.36 C 192.79 365.26 195.00 366.11 197.26 366.77 C 201.05 368.12 204.81 370.17 208.97 369.86 C 214.04 369.78 218.56 367.17 222.90 364.85 C 223.23 364.68 223.89 364.34 224.22 364.17 C 226.46 363.07 228.63 361.83 230.82 360.62 C 231.41 360.30 231.99 359.99 232.59 359.68 C 240.49 355.27 248.19 350.50 256.05 346.02 C 258.93 344.37 262.16 343.13 264.35 340.51 C 247.59 333.34 230.36 327.32 213.44 320.56 C 207.51 318.07 201.22 316.39 195.60 313.23 Z" fill="#370e19" opacity="1.00" stroke="#370e19" stroke-width="0.25"/>
<path d="M 41.86 314.05 C 47.17 317.15 52.95 319.29 58.73 321.31 C 82.45 330.50 105.89 340.44 129.69 349.43 C 168.69 364.86 207.40 380.97 246.37 396.49 C 258.25 401.31 270.34 405.67 282.09 410.80 C 282.66 411.55 283.21 412.31 283.76 413.08 C 280.13 411.82 276.36 411.30 272.54 411.46 C 269.42 410.35 266.43 408.23 262.98 409.72 C 218.87 392.40 175.08 374.29 130.98 356.92 C 107.56 347.31 83.99 338.08 60.56 328.48 C 57.84 327.52 55.30 325.59 52.30 325.77 C 52.42 325.44 52.65 324.80 52.77 324.47 C 47.97 322.91 41.37 320.15 41.86 314.05 Z" fill="#cdbbd7" opacity="1.00" stroke="#cdbbd7" stroke-width="0.25"/>
<path d="M 357.43 318.85 C 360.22 317.51 362.94 315.97 365.81 314.80 C 373.35 317.11 380.73 320.17 387.75 323.81 C 385.02 325.16 382.20 328.05 378.94 326.78 C 371.71 324.41 363.92 323.41 357.28 319.52 C 357.31 319.35 357.39 319.02 357.43 318.85 Z" fill="#101139" opacity="1.00" stroke="#101139" stroke-width="0.25"/>
<path d="M 297.02 324.21 C 301.70 322.08 306.28 316.74 311.80 319.18 C 311.81 319.53 311.83 320.24 311.84 320.60 C 308.89 322.45 305.86 324.22 302.62 325.51 C 300.66 326.32 298.80 324.80 297.02 324.21 Z" fill="#1b1840" opacity="1.00" stroke="#1b1840" stroke-width="0.25"/>
<path d="M 338.96 320.16 C 340.25 319.93 341.56 319.75 342.88 319.60 C 342.08 321.57 340.32 321.80 338.96 320.16 Z" fill="#fbf8fa" opacity="1.00" stroke="#fbf8fa" stroke-width="0.25"/>
<path d="M 344.34 325.20 C 347.50 323.33 350.83 321.75 354.04 319.94 C 358.34 321.77 362.54 323.85 367.01 325.27 C 370.37 326.51 374.00 327.08 377.09 328.98 C 373.51 332.53 368.20 335.95 363.00 334.09 C 359.08 333.10 355.41 331.40 351.80 329.62 C 352.96 327.19 355.68 326.56 357.88 325.43 C 354.62 325.71 352.07 327.98 349.06 329.00 C 346.69 329.02 344.39 328.27 342.22 327.42 C 342.09 326.14 343.52 325.82 344.34 325.20 Z" fill="#110e3d" opacity="1.00" stroke="#110e3d" stroke-width="0.25"/>
<path d="M 274.75 323.82 C 277.10 322.61 279.31 320.77 282.01 320.45 C 285.94 321.49 289.76 323.00 293.57 324.46 C 295.03 324.86 294.69 326.72 295.13 327.84 C 291.68 330.00 287.97 331.81 284.02 332.80 C 278.17 332.00 273.06 328.27 267.05 328.07 C 269.29 326.12 272.28 325.42 274.75 323.82 Z" fill="#10113c" opacity="1.00" stroke="#10113c" stroke-width="0.25"/>
<path d="M 304.36 326.70 C 307.55 324.60 310.86 322.68 313.94 320.41 C 317.23 321.47 320.67 321.97 323.94 323.06 C 324.22 323.43 324.77 324.18 325.05 324.55 C 322.35 325.85 320.21 327.89 318.07 329.91 C 313.33 330.67 308.85 327.91 304.36 326.70 Z" fill="#0b0d3a" opacity="1.00" stroke="#0b0d3a" stroke-width="0.25"/>
<path d="M 390.11 325.11 C 391.04 324.65 392.03 324.31 393.06 324.10 C 391.32 326.46 388.33 327.18 385.94 328.67 C 373.75 335.91 361.70 343.37 349.27 350.20 C 345.41 352.13 341.67 355.72 337.00 354.54 C 332.15 353.27 327.46 351.39 322.92 349.25 C 328.83 349.61 333.92 353.87 339.97 353.65 C 346.55 351.65 351.92 347.04 358.08 344.12 C 368.78 337.83 379.28 331.19 390.11 325.11 Z" fill="#0d0f34" opacity="1.00" stroke="#0d0f34" stroke-width="0.25"/>
<path d="M 327.38 325.75 C 331.06 323.57 334.53 327.18 338.20 327.49 C 340.39 327.48 342.08 328.83 343.72 330.11 C 340.91 332.17 338.52 334.73 335.79 336.89 C 330.77 335.56 325.99 333.32 320.99 331.83 C 320.88 328.21 324.81 327.19 327.38 325.75 Z" fill="#10113b" opacity="1.00" stroke="#10113b" stroke-width="0.25"/>
<path d="M 52.30 325.77 C 55.30 325.59 57.84 327.52 60.56 328.48 C 83.99 338.08 107.56 347.31 130.98 356.92 C 175.08 374.29 218.87 392.40 262.98 409.72 C 271.96 413.67 281.26 416.85 290.24 420.82 C 293.74 422.42 297.73 423.43 301.55 422.36 C 304.59 421.38 307.24 419.53 309.98 417.94 C 326.68 407.97 343.49 398.20 360.16 388.20 C 374.05 380.02 388.07 372.08 401.84 363.70 C 405.15 361.70 408.50 359.77 411.75 357.67 C 413.57 356.46 415.36 355.19 417.16 353.95 C 418.14 353.27 419.14 352.60 420.15 351.96 C 423.24 349.97 426.45 348.18 429.53 346.18 C 432.90 343.86 437.00 342.08 439.01 338.30 C 440.06 338.42 441.11 338.55 442.17 338.69 C 442.48 339.25 443.10 340.38 443.41 340.94 C 443.17 341.58 442.70 342.87 442.47 343.52 C 438.90 347.13 433.11 348.38 430.77 353.06 C 433.79 352.43 436.14 350.32 438.82 348.93 C 444.07 346.17 449.09 342.98 453.79 339.37 C 453.82 339.98 453.88 341.19 453.90 341.80 C 456.59 343.11 459.40 344.14 462.08 345.47 C 465.75 344.03 469.18 341.97 473.02 340.96 C 479.67 339.55 483.59 333.36 488.64 329.32 C 488.86 329.86 489.08 330.40 489.31 330.95 C 484.55 333.41 481.77 338.58 477.05 341.04 C 472.13 342.30 467.41 344.17 462.95 346.59 C 458.48 346.89 454.43 340.53 450.04 343.69 C 443.54 347.79 437.06 352.18 429.69 354.57 C 434.66 357.54 440.36 358.97 445.47 361.67 C 451.34 364.74 457.53 367.13 463.57 369.84 C 464.68 369.03 465.83 368.24 467.20 367.92 C 463.04 373.15 457.12 376.77 452.55 381.68 C 448.38 386.44 441.33 387.03 437.28 391.96 C 444.58 394.82 451.83 397.87 458.86 401.34 C 459.52 402.61 457.60 403.00 456.92 403.66 C 447.77 409.42 438.32 414.69 429.27 420.60 C 428.82 420.55 427.94 420.45 427.50 420.40 C 437.18 413.75 447.62 408.30 457.42 401.83 C 449.34 398.21 441.14 394.87 433.07 391.23 C 432.71 390.97 432.00 390.47 431.65 390.21 C 433.14 390.34 434.58 390.69 435.98 391.27 C 440.61 386.47 447.69 385.29 452.16 380.34 C 455.47 376.95 459.33 374.14 462.54 370.66 C 457.90 368.85 453.30 366.93 448.75 364.92 C 441.27 368.81 434.19 373.41 426.95 377.72 C 417.11 383.59 407.24 389.40 397.48 395.39 C 397.04 395.35 396.15 395.27 395.71 395.23 C 412.96 384.67 430.31 374.27 447.74 364.01 C 442.01 361.37 436.26 358.72 430.30 356.67 C 426.77 355.37 424.28 359.03 421.74 360.82 C 421.74 361.38 421.75 361.95 421.76 362.53 C 407.17 370.87 392.74 379.49 378.17 387.88 C 370.37 392.03 362.80 396.61 355.45 401.51 C 360.00 402.71 364.95 401.82 369.31 403.80 C 370.44 404.29 370.66 405.61 371.21 406.58 C 370.11 407.11 369.01 407.63 367.92 408.15 C 368.50 407.55 369.66 406.36 370.24 405.77 C 366.62 403.30 362.11 403.56 357.95 403.14 C 355.95 403.10 353.78 402.74 351.94 403.75 C 348.10 405.79 344.28 407.96 340.92 410.74 C 339.60 411.18 338.99 410.91 339.10 409.95 C 343.72 406.62 349.29 404.34 353.24 400.24 C 337.98 410.07 321.66 418.10 306.05 427.33 C 302.63 429.52 298.44 428.61 294.71 429.66 C 299.10 430.12 303.89 430.21 307.75 427.71 C 317.65 421.99 327.46 416.07 337.62 410.81 C 337.77 411.19 338.08 411.94 338.23 412.32 C 333.33 413.99 329.07 417.06 324.51 419.45 C 319.00 422.95 312.87 425.51 307.67 429.46 C 310.11 429.69 312.58 430.52 315.04 430.12 C 317.88 429.11 320.05 426.76 323.00 426.02 C 320.98 428.37 318.09 429.76 315.36 431.11 C 311.57 431.45 307.77 430.03 303.99 430.88 C 300.45 431.71 296.83 430.92 293.27 431.21 C 287.92 434.08 282.94 437.69 277.42 440.26 C 276.97 440.26 276.06 440.26 275.61 440.26 C 281.01 436.83 286.63 433.76 292.08 430.41 C 291.48 429.39 290.22 429.14 289.24 428.66 C 281.96 425.87 274.68 423.08 267.48 420.10 C 244.01 409.65 219.98 400.54 196.22 390.79 C 165.14 378.13 133.95 365.75 102.86 353.11 C 89.29 348.01 75.94 342.35 62.59 336.72 C 57.75 334.70 52.93 332.60 48.35 330.05 C 48.24 329.63 48.03 328.79 47.93 328.37 C 49.38 327.50 50.81 326.58 52.30 325.77 Z" fill="#11113b" opacity="1.00" stroke="#11113b" stroke-width="0.25"/>
<path d="M 298.34 328.47 C 299.43 327.66 300.62 327.43 301.90 327.77 C 305.02 328.53 308.19 329.37 310.98 330.99 C 311.95 331.64 311.96 332.32 311.00 333.02 C 308.05 335.56 304.71 337.72 301.09 339.18 C 296.35 338.31 291.89 336.06 287.32 334.50 C 287.32 334.28 287.33 333.85 287.34 333.63 C 291.23 332.42 294.84 330.53 298.34 328.47 Z" fill="#0e0e3a" opacity="1.00" stroke="#0e0e3a" stroke-width="0.25"/>
<path d="M 336.51 337.08 C 339.19 334.38 342.42 332.25 345.87 330.65 C 352.20 331.31 358.31 333.90 363.77 337.11 C 360.42 339.87 356.31 342.22 351.98 342.80 C 346.68 341.37 341.48 339.41 336.51 337.08 Z" fill="#0e0e3a" opacity="1.00" stroke="#0e0e3a" stroke-width="0.25"/>
<path d="M 433.49 336.15 C 435.52 334.39 437.58 332.66 439.76 331.08 C 439.60 333.49 439.44 335.91 439.01 338.30 C 437.00 342.08 432.90 343.86 429.53 346.18 C 427.70 344.90 425.86 343.64 423.92 342.54 C 426.49 339.59 430.10 337.94 433.49 336.15 Z" fill="#e0cee8" opacity="1.00" stroke="#e0cee8" stroke-width="0.25"/>
<path d="M 315.94 333.98 C 317.14 333.25 318.58 332.82 319.98 333.23 C 327.54 335.07 334.31 339.10 341.69 341.49 C 344.14 342.28 346.57 343.16 348.95 344.15 C 348.81 345.72 348.03 347.84 345.97 347.35 C 340.15 346.57 334.91 342.71 329.00 342.32 C 326.29 343.85 323.75 345.68 320.91 347.00 C 314.89 345.10 308.97 342.91 302.99 340.87 C 307.44 338.82 311.68 336.38 315.94 333.98 Z" fill="#0f0f3b" opacity="1.00" stroke="#0f0f3b" stroke-width="0.25"/>
<path d="M 62.59 336.72 C 75.94 342.35 89.29 348.01 102.86 353.11 C 133.95 365.75 165.14 378.13 196.22 390.79 C 219.98 400.54 244.01 409.65 267.48 420.10 C 267.08 420.65 266.27 421.74 265.87 422.29 C 259.45 418.19 252.12 415.90 245.16 412.92 C 199.59 394.15 153.78 375.92 108.00 357.69 C 106.18 357.07 104.32 356.66 102.41 356.56 C 98.15 353.59 93.16 351.97 88.40 350.02 C 78.98 346.48 69.95 341.93 60.39 338.78 C 60.94 338.27 62.04 337.23 62.59 336.72 Z" fill="#fff3ff" opacity="1.00" stroke="#fff3ff" stroke-width="0.25"/>
<path d="M 58.97 338.43 C 59.33 338.51 60.04 338.69 60.39 338.78 C 69.95 341.93 78.98 346.48 88.40 350.02 C 93.16 351.97 98.15 353.59 102.41 356.56 C 102.44 357.09 102.51 358.14 102.54 358.67 C 98.58 361.18 94.35 363.23 90.32 365.63 C 142.85 387.74 195.54 409.53 248.06 431.65 C 253.66 428.95 259.01 425.66 264.33 422.43 C 219.15 403.21 173.41 385.32 127.87 366.97 C 121.25 364.25 114.46 361.83 108.12 358.49 C 107.93 358.90 107.56 359.71 107.38 360.12 C 106.35 360.26 105.33 360.43 104.31 360.60 C 105.57 359.67 106.80 358.70 108.00 357.69 C 153.78 375.92 199.59 394.15 245.16 412.92 C 252.12 415.90 259.45 418.19 265.87 422.29 C 264.52 424.23 262.37 425.32 260.33 426.39 C 256.62 428.31 253.00 430.40 249.38 432.47 C 256.99 435.65 264.63 438.78 272.11 442.27 C 273.26 441.58 274.43 440.91 275.61 440.26 C 276.06 440.26 276.97 440.26 277.42 440.26 C 275.69 441.45 273.85 442.49 272.02 443.53 C 232.57 426.08 192.63 409.76 152.80 393.19 C 131.35 383.91 109.60 375.28 88.23 365.81 C 91.94 362.32 97.10 361.11 101.06 358.03 L 101.20 357.07 C 97.57 355.03 93.65 353.58 89.83 351.95 C 81.29 348.65 72.98 344.79 64.40 341.60 C 62.50 340.75 60.18 340.29 58.97 338.43 Z" fill="#370e19" opacity="1.00" stroke="#370e19" stroke-width="0.25"/>
<path d="M 235.44 356.47 C 245.21 351.40 254.13 344.69 264.35 340.51 C 262.16 343.13 258.93 344.37 256.05 346.02 C 248.19 350.50 240.49 355.27 232.59 359.68 C 232.08 357.81 234.31 357.31 235.44 356.47 Z" fill="#fbf8fa" opacity="1.00" stroke="#fbf8fa" stroke-width="0.25"/>
<path d="M 266.31 341.37 C 267.75 340.28 269.59 340.63 271.22 340.97 C 273.03 344.62 265.21 344.98 266.31 341.37 Z" fill="#d685a3" opacity="1.00" stroke="#d685a3" stroke-width="0.25"/>
<path d="M 419.40 344.81 C 420.78 343.83 422.21 342.83 423.92 342.54 C 425.86 343.64 427.70 344.90 429.53 346.18 C 426.45 348.18 423.24 349.97 420.15 351.96 C 420.31 349.66 420.28 347.33 419.49 345.14 L 419.40 344.81 Z" fill="#d7dcf5" opacity="1.00" stroke="#d7dcf5" stroke-width="0.25"/>
<path d="M 415.16 347.92 C 416.62 347.02 418.05 346.07 419.49 345.14 C 420.28 347.33 420.31 349.66 420.15 351.96 C 419.14 352.60 418.14 353.27 417.16 353.95 C 416.48 351.94 415.81 349.93 415.16 347.92 Z" fill="#d0f073" opacity="1.00" stroke="#d0f073" stroke-width="0.25"/>
<path d="M 410.45 350.66 C 411.78 349.37 413.29 348.25 415.16 347.92 C 415.81 349.93 416.48 351.94 417.16 353.95 C 415.36 355.19 413.57 356.46 411.75 357.67 C 411.52 355.29 411.06 352.96 410.45 350.66 Z" fill="#dcdff8" opacity="1.00" stroke="#dcdff8" stroke-width="0.25"/>
<path d="M 401.42 356.47 C 403.71 353.69 407.62 352.84 410.45 350.66 C 411.06 352.96 411.52 355.29 411.75 357.67 C 408.50 359.77 405.15 361.70 401.84 363.70 C 400.29 361.48 400.41 358.86 401.42 356.47 Z" fill="#eab6f2" opacity="1.00" stroke="#eab6f2" stroke-width="0.25"/>
<path d="M 163.44 353.60 C 167.42 353.32 170.95 355.35 174.50 356.80 C 180.23 359.28 186.13 361.32 191.95 363.58 C 191.61 363.78 190.95 364.16 190.62 364.36 C 181.55 360.79 172.42 357.39 163.44 353.60 Z" fill="#fbf8fa" opacity="1.00" stroke="#fbf8fa" stroke-width="0.25"/>
<path d="M 102.41 356.56 C 104.32 356.66 106.18 357.07 108.00 357.69 C 106.80 358.70 105.57 359.67 104.31 360.60 C 105.33 360.43 106.35 360.26 107.38 360.12 C 107.56 359.71 107.93 358.90 108.12 358.49 C 114.46 361.83 121.25 364.25 127.87 366.97 C 173.41 385.32 219.15 403.21 264.33 422.43 C 259.01 425.66 253.66 428.95 248.06 431.65 C 195.54 409.53 142.85 387.74 90.32 365.63 C 94.35 363.23 98.58 361.18 102.54 358.67 C 102.51 358.14 102.44 357.09 102.41 356.56 Z" fill="#faebec" opacity="1.00" stroke="#faebec" stroke-width="0.25"/>
<path d="M 421.74 360.82 C 424.28 359.03 426.77 355.37 430.30 356.67 C 436.26 358.72 442.01 361.37 447.74 364.01 C 430.31 374.27 412.96 384.67 395.71 395.23 C 392.29 397.11 388.97 399.18 385.66 401.24 C 385.30 402.03 384.57 403.62 384.20 404.41 C 390.21 407.01 396.31 409.53 401.85 413.09 C 394.27 417.79 386.47 422.20 378.91 426.92 C 366.44 422.31 354.36 416.68 341.99 411.80 C 341.72 411.53 341.19 411.00 340.92 410.74 C 344.28 407.96 348.10 405.79 351.94 403.75 C 353.78 402.74 355.95 403.10 357.95 403.14 C 362.11 403.56 366.62 403.30 370.24 405.77 C 369.66 406.36 368.50 407.55 367.92 408.15 C 369.01 407.63 370.11 407.11 371.21 406.58 C 370.66 405.61 370.44 404.29 369.31 403.80 C 364.95 401.82 360.00 402.71 355.45 401.51 C 362.80 396.61 370.37 392.03 378.17 387.88 C 392.74 379.49 407.17 370.87 421.76 362.53 C 421.75 361.95 421.74 361.38 421.74 360.82 Z" fill="#fbebed" opacity="1.00" stroke="#fbebed" stroke-width="0.25"/>
<path d="M 386.34 365.33 C 391.63 362.82 396.09 358.91 401.42 356.47 C 400.41 358.86 400.29 361.48 401.84 363.70 C 388.07 372.08 374.05 380.02 360.16 388.20 C 343.49 398.20 326.68 407.97 309.98 417.94 C 307.24 419.53 304.59 421.38 301.55 422.36 C 297.73 423.43 293.74 422.42 290.24 420.82 C 281.26 416.85 271.96 413.67 262.98 409.72 C 266.43 408.23 269.42 410.35 272.54 411.46 C 276.36 411.30 280.13 411.82 283.76 413.08 C 283.21 412.31 282.66 411.55 282.09 410.80 C 288.75 412.05 294.66 417.70 301.79 415.57 C 319.41 406.18 336.16 395.20 353.53 385.37 C 364.37 378.52 375.43 372.05 386.34 365.33 Z" fill="#d7c4d9" opacity="1.00" stroke="#d7c4d9" stroke-width="0.25"/>
<path d="M 222.86 363.85 C 225.25 362.28 227.73 360.02 230.82 360.62 C 228.63 361.83 226.46 363.07 224.22 364.17 L 222.86 363.85 Z" fill="#fbf8fa" opacity="1.00" stroke="#fbf8fa" stroke-width="0.25"/>
<path d="M 216.67 366.65 C 218.64 365.77 220.59 363.93 222.90 364.85 C 218.56 367.17 214.04 369.78 208.97 369.86 C 204.81 370.17 201.05 368.12 197.26 366.77 C 200.89 366.69 204.21 368.46 207.80 368.68 C 210.87 368.85 213.99 368.17 216.67 366.65 Z" fill="#fbf8fa" opacity="1.00" stroke="#fbf8fa" stroke-width="0.25"/>
<path d="M 426.95 377.72 C 434.19 373.41 441.27 368.81 448.75 364.92 C 453.30 366.93 457.90 368.85 462.54 370.66 C 459.33 374.14 455.47 376.95 452.16 380.34 C 447.69 385.29 440.61 386.47 435.98 391.27 C 434.58 390.69 433.14 390.34 431.65 390.21 C 425.51 394.19 419.60 398.53 413.42 402.45 C 410.07 404.65 406.54 406.65 403.65 409.46 C 405.76 408.83 407.83 407.99 409.68 406.75 C 417.52 401.65 425.17 396.25 433.07 391.23 C 441.14 394.87 449.34 398.21 457.42 401.83 C 447.62 408.30 437.18 413.75 427.50 420.40 C 419.72 417.40 412.13 413.87 404.42 410.69 C 403.30 410.15 402.09 410.77 400.95 410.86 C 396.07 407.98 390.40 406.40 385.83 403.11 C 388.82 399.55 393.76 398.18 397.48 395.39 C 407.24 389.40 417.11 383.59 426.95 377.72 Z" fill="#fbebee" opacity="1.00" stroke="#fbebee" stroke-width="0.25"/>
<path d="M 413.42 402.45 C 419.60 398.53 425.51 394.19 431.65 390.21 C 432.00 390.47 432.71 390.97 433.07 391.23 C 425.17 396.25 417.52 401.65 409.68 406.75 C 407.83 407.99 405.76 408.83 403.65 409.46 C 406.54 406.65 410.07 404.65 413.42 402.45 Z" fill="#d4c2c5" opacity="1.00" stroke="#d4c2c5" stroke-width="0.25"/>
<path d="M 385.66 401.24 C 388.97 399.18 392.29 397.11 395.71 395.23 C 396.15 395.27 397.04 395.35 397.48 395.39 C 393.76 398.18 388.82 399.55 385.83 403.11 C 390.40 406.40 396.07 407.98 400.95 410.86 C 402.09 410.77 403.30 410.15 404.42 410.69 C 412.13 413.87 419.72 417.40 427.50 420.40 C 427.94 420.45 428.82 420.55 429.27 420.60 C 427.98 421.89 426.22 421.82 424.59 421.44 C 416.79 426.42 408.94 431.32 401.03 436.11 C 399.61 437.36 397.88 435.91 396.43 435.48 C 389.91 432.46 383.22 429.82 376.46 427.40 C 366.32 423.27 356.25 418.99 346.17 414.75 C 344.00 413.78 341.44 413.30 339.83 411.42 C 340.37 411.52 341.45 411.70 341.99 411.80 C 354.36 416.68 366.44 422.31 378.91 426.92 C 386.47 422.20 394.27 417.79 401.85 413.09 C 396.31 409.53 390.21 407.01 384.20 404.41 C 384.57 403.62 385.30 402.03 385.66 401.24 Z" fill="#370e19" opacity="1.00" stroke="#370e19" stroke-width="0.25"/>
<path d="M 395.94 418.02 C 398.81 416.24 402.11 414.76 403.84 411.69 C 410.49 414.81 417.42 417.27 424.10 420.31 C 420.96 422.84 417.27 424.53 413.94 426.77 C 409.22 429.56 404.79 432.85 399.88 435.30 C 393.22 433.12 387.03 429.67 380.33 427.57 C 385.34 424.09 390.61 420.98 395.94 418.02 Z" fill="#faebec" opacity="1.00" stroke="#faebec" stroke-width="0.25"/>
<path d="M 265.87 422.29 C 266.27 421.74 267.08 420.65 267.48 420.10 C 274.68 423.08 281.96 425.87 289.24 428.66 C 290.22 429.14 291.48 429.39 292.08 430.41 C 286.63 433.76 281.01 436.83 275.61 440.26 C 274.43 440.91 273.26 441.58 272.11 442.27 C 264.63 438.78 256.99 435.65 249.38 432.47 C 253.00 430.40 256.62 428.31 260.33 426.39 C 262.37 425.32 264.52 424.23 265.87 422.29 Z" fill="#faebec" opacity="1.00" stroke="#faebec" stroke-width="0.25"/>
<path d="M 379.12 431.24 C 383.30 433.81 388.44 434.70 392.14 438.02 C 387.81 441.22 383.02 443.73 378.34 446.36 C 379.69 448.88 382.54 448.70 384.92 449.39 C 382.03 449.62 379.17 448.66 377.26 446.44 C 381.55 443.08 386.48 440.72 391.14 437.94 C 387.24 435.50 382.81 434.03 379.12 431.24 Z" fill="#370e19" opacity="1.00" stroke="#370e19" stroke-width="0.25"/>
<path d="M 388.89 442.99 C 390.97 440.90 393.47 439.07 396.51 438.80 C 394.70 441.21 391.81 442.55 388.89 442.99 Z" fill="#e1d2d2" opacity="1.00" stroke="#e1d2d2" stroke-width="0.25"/>
</svg>